<?xml version="1.0" standalone="no"?>
<!DOCTYPE svg PUBLIC "-//W3C//DTD SVG 20010904//EN"
 "http://www.w3.org/TR/2001/REC-SVG-20010904/DTD/svg10.dtd">
<svg version="1.0" xmlns="http://www.w3.org/2000/svg"
 width="512.000000pt" height="512.000000pt" viewBox="0 0 512.000000 512.000000"
 preserveAspectRatio="xMidYMid meet">

<g transform="translate(0.000000,512.000000) scale(0.100000,-0.100000)"
fill="#2685f7" stroke="none">
<path d="M2188 5099 c-69 -36 -78 -69 -78 -296 0 -150 4 -211 16 -253 27 -93
31 -87 -84 -125 -189 -61 -403 -181 -541 -302 l-58 -51 -21 43 c-15 31 -33 50
-61 65 -38 19 -58 20 -371 20 -312 0 -333 -1 -370 -20 -71 -36 -80 -69 -80
-284 0 -102 5 -209 11 -238 18 -84 59 -158 124 -223 66 -67 139 -106 230 -126
33 -7 61 -13 62 -14 1 0 -4 -25 -12 -55 -23 -86 -45 -271 -45 -380 0 -109 22
-295 45 -380 8 -30 15 -61 15 -67 0 -10 -48 -13 -205 -13 -187 0 -210 -2 -245
-20 -71 -36 -80 -69 -80 -284 0 -102 5 -209 11 -238 37 -172 175 -310 347
-347 103 -22 198 -9 299 40 60 30 162 130 188 186 11 24 23 43 27 43 4 0 18
-15 32 -33 l25 -32 -63 -250 -62 -250 -270 -5 c-234 -4 -272 -7 -295 -22 -14
-10 -171 -234 -348 -499 -357 -531 -354 -525 -312 -607 14 -28 35 -49 61 -62
39 -20 53 -20 2480 -20 2427 0 2441 0 2480 20 45 23 80 80 80 130 0 17 -9 47
-19 68 -11 20 -157 242 -325 492 -219 325 -315 461 -338 475 -30 18 -56 20
-297 25 l-265 5 -62 249 c-62 247 -62 250 -44 275 10 15 27 34 38 44 19 18 20
17 43 -30 29 -61 130 -161 192 -192 139 -67 276 -67 411 1 81 41 147 106 189
186 49 93 57 146 57 358 0 215 -9 248 -80 284 -36 18 -58 20 -255 20 -118 0
-215 3 -215 8 0 4 7 32 15 62 23 86 45 271 45 383 0 115 -20 278 -46 381 -19
77 -18 80 49 90 108 18 232 113 290 223 49 94 57 147 57 359 0 215 -9 248 -80
284 -37 19 -58 20 -370 20 -313 0 -333 -1 -371 -20 -27 -15 -46 -34 -61 -64
l-21 -44 -61 50 c-153 123 -330 220 -516 282 -117 40 -113 33 -86 126 12 42
16 103 16 253 0 229 -8 260 -80 297 -37 19 -58 20 -372 20 -312 -1 -335 -2
-370 -21z m522 -375 c0 -81 -4 -103 -22 -136 -42 -74 -126 -97 -200 -56 -61
34 -78 78 -78 193 l0 95 150 0 150 0 0 -96z m105 -539 c178 -36 353 -109 505
-210 41 -27 125 -99 186 -160 203 -200 319 -415 381 -706 24 -116 25 -381 0
-499 -58 -280 -179 -504 -376 -701 -197 -197 -421 -318 -701 -376 -118 -24
-382 -24 -500 0 -281 59 -495 173 -696 372 -202 199 -322 421 -381 705 -24
118 -24 382 0 500 59 281 174 496 372 696 225 227 493 358 815 398 72 9 318
-3 395 -19z m1445 -355 c0 -112 -20 -159 -80 -190 -50 -26 -93 -25 -140 1 -60
34 -80 80 -80 188 l0 91 150 0 150 0 0 -90z m-3120 -23 c0 -110 -17 -150 -76
-184 -49 -28 -93 -29 -144 -3 -60 31 -80 78 -80 190 l0 90 150 0 150 0 0 -93z
m3260 -1787 c0 -71 -4 -99 -20 -130 -23 -45 -80 -80 -130 -80 -50 0 -107 35
-130 80 -16 31 -20 59 -20 130 l0 90 150 0 150 0 0 -90z m-3360 -10 c0 -71 -4
-99 -20 -130 -23 -45 -80 -80 -130 -80 -50 0 -107 35 -130 80 -16 31 -20 59
-20 130 l0 90 150 0 150 0 0 -90z m652 -551 c87 -56 206 -113 318 -153 90 -32
95 -35 98 -65 l3 -31 -279 0 -279 0 36 145 c19 80 37 145 38 145 1 0 31 -18
65 -41z m1841 -111 l35 -138 -280 0 -279 0 3 31 c3 30 8 33 97 65 117 41 213
87 311 147 41 25 76 43 77 39 1 -4 18 -69 36 -144z m-823 -227 c0 -78 -4 -100
-22 -133 -42 -74 -126 -97 -200 -56 -60 34 -78 78 -78 190 l0 93 150 0 150 0
0 -94z m-551 -263 c30 -65 128 -164 194 -197 226 -110 488 -29 598 184 l34 65
649 -2 648 -3 204 -302 203 -303 -2130 0 -2130 0 84 123 c46 67 139 204 206
305 l121 182 648 0 647 0 24 -52z"/>
<path d="M2405 3900 c-214 -33 -430 -144 -586 -299 -135 -136 -230 -303 -280
-497 -34 -129 -34 -359 0 -488 102 -392 380 -669 781 -778 115 -32 362 -31
484 1 393 102 669 379 779 781 29 109 29 371 0 480 -110 399 -388 680 -773
779 -97 25 -307 36 -405 21z m5 -464 c0 -152 0 -155 -22 -162 -13 -4 -45 -21
-73 -39 l-50 -31 -133 76 -132 77 53 51 c72 68 154 119 246 153 119 44 111 54
111 -125z m431 118 c82 -33 183 -100 236 -155 l42 -44 -132 -76 -132 -76 -43
29 c-23 16 -56 34 -72 40 l-30 10 0 155 0 155 34 -6 c18 -4 62 -18 97 -32z
m-852 -537 l124 -72 0 -85 0 -85 -124 -72 c-68 -40 -128 -71 -134 -69 -16 4
-35 85 -41 176 -8 112 18 281 43 280 5 0 64 -33 132 -73z m1300 22 c29 -91 14
-383 -20 -405 -5 -3 -66 28 -135 68 l-127 74 0 84 0 84 124 73 c68 39 128 71
134 69 5 -1 16 -22 24 -47z m-659 -49 c45 -23 80 -80 80 -131 0 -74 -76 -149
-151 -149 -46 0 -108 39 -130 82 -37 72 -14 151 57 194 48 29 92 30 144 4z
m-242 -544 c22 -7 22 -10 22 -162 0 -129 -2 -154 -15 -154 -31 0 -175 59 -230
95 -32 20 -82 59 -112 87 l-53 51 132 77 133 76 50 -31 c28 -18 60 -35 73 -39z
m639 -28 l93 -53 -43 -43 c-62 -64 -165 -129 -257 -163 -44 -16 -87 -29 -95
-29 -13 0 -15 25 -15 154 l0 154 33 12 c17 6 50 24 72 39 l40 29 40 -24 c22
-13 82 -48 132 -76z"/>
</g>
</svg>
