<svg xmlns="http://www.w3.org/2000/svg" width="512" height="512" viewBox="0 0 512 512" version="1.1"><path d="M 7.241 1.995 C 5.448 3.088, 3.088 5.448, 1.995 7.241 C 0.026 10.470, 0.007 12.790, 0.007 256 C 0.007 499.210, 0.026 501.530, 1.995 504.759 C 3.088 506.552, 5.448 508.912, 7.241 510.005 C 10.470 511.974, 12.790 511.993, 256 511.993 C 498.071 511.993, 501.545 511.965, 504.715 510.033 C 506.483 508.954, 509.070 506.265, 510.465 504.056 L 513 500.040 512.755 254.270 C 512.527 25.901, 512.474 19.014, 512 157 C 511.720 238.675, 511.380 304.337, 511.245 302.915 C 510.834 298.578, 507.004 287.861, 503.413 281 C 493.735 262.508, 475.545 248.382, 454.468 242.992 C 447.266 241.150, 443.346 241, 402.379 241 L 358.077 241 357.086 237.250 C 356.541 235.188, 350.280 210.219, 343.173 181.766 C 336.065 153.312, 329.495 128.878, 328.571 127.468 C 327.647 126.058, 325.453 124.028, 323.696 122.956 C 320.665 121.108, 318.374 121.007, 279.373 121.004 L 238.246 121 224.496 65.750 C 216.933 35.362, 209.991 9.152, 209.069 7.503 C 208.146 5.855, 205.887 3.493, 204.048 2.253 L 200.704 0 105.602 0.004 C 12.469 0.007, 10.433 0.049, 7.241 1.995 M 0.492 256 C 0.492 391.575, 0.608 447.037, 0.750 379.250 C 0.892 311.462, 0.892 200.537, 0.750 132.750 C 0.608 64.962, 0.492 120.425, 0.492 256 M 30 75.500 L 30 121 45.402 121 L 60.804 121 61.152 107.750 C 61.489 94.921, 61.615 94.260, 65.113 86.935 C 69.878 76.957, 76.957 69.878, 86.935 65.113 C 94.269 61.610, 94.851 61.500, 106 61.500 C 117.149 61.500, 117.731 61.610, 125.065 65.113 C 135.043 69.878, 142.122 76.957, 146.887 86.935 C 150.385 94.260, 150.511 94.921, 150.848 107.750 L 151.196 121 178.598 121 C 196.347 121, 206 120.645, 206 119.992 C 206 119.437, 200.994 98.962, 194.875 74.492 L 183.750 30 106.875 30 L 30 30 30 75.500 M 102.170 91.687 C 98.741 92.383, 92.416 99.170, 91.656 102.969 C 91.295 104.773, 91 109.569, 91 113.625 L 91 121 106.116 121 L 121.233 121 120.840 111.218 C 120.515 103.146, 120.063 100.897, 118.249 98.350 C 114.407 92.954, 108.329 90.435, 102.170 91.687 M 30 196 L 30 241 45.402 241 L 60.804 241 61.152 227.750 C 61.489 214.921, 61.615 214.260, 65.113 206.935 C 69.878 196.957, 76.957 189.878, 86.935 185.113 C 94.269 181.610, 94.851 181.500, 106 181.500 C 117.149 181.500, 117.731 181.610, 125.065 185.113 C 135.043 189.878, 142.122 196.957, 146.887 206.935 C 150.385 214.260, 150.511 214.921, 150.848 227.750 L 151.196 241 181 241 L 210.804 241 211.152 227.750 C 211.489 214.921, 211.615 214.260, 215.113 206.935 C 219.878 196.957, 226.957 189.878, 236.935 185.113 C 244.269 181.610, 244.851 181.500, 256 181.500 C 267.149 181.500, 267.731 181.610, 275.065 185.113 C 285.043 189.878, 292.122 196.957, 296.887 206.935 C 300.385 214.260, 300.511 214.921, 300.848 227.750 L 301.196 241 313.598 241 C 321.352 241, 326 240.618, 326 239.981 C 326 239.139, 308.206 167.216, 304.913 154.750 L 303.923 151 166.961 151 L 30 151 30 196 M 102.170 211.687 C 98.741 212.383, 92.416 219.170, 91.656 222.969 C 91.295 224.773, 91 229.569, 91 233.625 L 91 241 106.116 241 L 121.233 241 120.840 231.218 C 120.515 223.146, 120.063 220.897, 118.249 218.350 C 114.407 212.954, 108.329 210.435, 102.170 211.687 M 252.170 211.687 C 248.741 212.383, 242.416 219.170, 241.656 222.969 C 241.295 224.773, 241 229.569, 241 233.625 L 241 241 256.116 241 L 271.233 241 270.840 231.218 C 270.515 223.146, 270.063 220.897, 268.249 218.350 C 264.407 212.954, 258.329 210.435, 252.170 211.687 M 30 316 L 30 361 45.402 361 L 60.804 361 61.152 347.750 C 61.489 334.921, 61.615 334.260, 65.113 326.935 C 69.878 316.957, 76.957 309.878, 86.935 305.113 C 94.269 301.610, 94.851 301.500, 106 301.500 C 117.149 301.500, 117.731 301.610, 125.065 305.113 C 135.043 309.878, 142.122 316.957, 146.887 326.935 C 150.385 334.260, 150.511 334.921, 150.848 347.750 L 151.196 361 181 361 L 210.804 361 211.152 347.750 C 211.489 334.921, 211.615 334.260, 215.113 326.935 C 219.878 316.957, 226.957 309.878, 236.935 305.113 C 244.269 301.610, 244.851 301.500, 256 301.500 C 267.149 301.500, 267.731 301.610, 275.065 305.113 C 285.043 309.878, 292.122 316.957, 296.887 326.935 C 300.385 334.260, 300.511 334.921, 300.848 347.750 L 301.196 361 331 361 L 360.804 361 361.152 347.695 C 361.494 334.604, 361.561 334.266, 365.311 326.681 C 367.555 322.143, 371.137 316.959, 374.018 314.077 C 379.379 308.716, 390.554 302.589, 396.938 301.511 C 399.172 301.133, 401 300.383, 401 299.843 C 401 298.981, 397.728 285.507, 394.907 274.750 L 393.923 271 211.961 271 L 30 271 30 316 M 426 272.019 C 426 272.861, 443.794 344.784, 447.087 357.250 L 448.077 361 465.039 361 L 482 361 481.992 338.750 C 481.988 326.512, 481.526 313.575, 480.965 310 C 477.932 290.672, 461.855 274.849, 442.390 272.036 C 433.436 270.741, 426 270.734, 426 272.019 M 102.170 331.687 C 98.741 332.383, 92.416 339.170, 91.656 342.969 C 91.295 344.773, 91 349.569, 91 353.625 L 91 361 106.116 361 L 121.233 361 120.840 351.218 C 120.515 343.146, 120.063 340.897, 118.249 338.350 C 114.407 332.954, 108.329 330.435, 102.170 331.687 M 252.170 331.687 C 248.741 332.383, 242.416 339.170, 241.656 342.969 C 241.295 344.773, 241 349.569, 241 353.625 L 241 361 256.116 361 L 271.233 361 270.840 351.218 C 270.515 343.146, 270.063 340.897, 268.249 338.350 C 264.407 332.954, 258.329 330.435, 252.170 331.687 M 402.170 331.716 C 398.761 332.366, 392.419 339.153, 391.656 342.969 C 391.295 344.773, 391 349.569, 391 353.625 L 391 361 403.500 361 C 411.380 361, 416 360.621, 416 359.974 C 416 357.682, 409.635 333.410, 408.730 332.250 C 407.751 330.995, 406.492 330.893, 402.170 331.716 M 30 436.500 L 30 482 45.402 482 L 60.804 482 61.152 468.750 C 61.489 455.921, 61.615 455.260, 65.113 447.935 C 69.878 437.957, 76.957 430.878, 86.935 426.113 C 94.269 422.610, 94.851 422.500, 106 422.500 C 117.149 422.500, 117.731 422.610, 125.065 426.113 C 135.043 430.878, 142.122 437.957, 146.887 447.935 C 150.385 455.260, 150.511 455.921, 150.848 468.750 L 151.196 482 181 482 L 210.804 482 211.152 468.750 C 211.489 455.921, 211.615 455.260, 215.113 447.935 C 219.878 437.957, 226.957 430.878, 236.935 426.113 C 244.269 422.610, 244.851 422.500, 256 422.500 C 267.149 422.500, 267.731 422.610, 275.065 426.113 C 285.043 430.878, 292.122 437.957, 296.887 447.935 C 300.385 455.260, 300.511 455.921, 300.848 468.750 L 301.196 482 331 482 L 360.804 482 361.152 468.750 C 361.489 455.921, 361.615 455.260, 365.113 447.935 C 369.878 437.957, 376.957 430.878, 386.935 426.113 C 394.269 422.610, 394.851 422.500, 406 422.500 C 417.149 422.500, 417.731 422.610, 425.065 426.113 C 435.043 430.878, 442.122 437.957, 446.887 447.935 C 450.385 455.260, 450.511 455.921, 450.848 468.750 L 451.196 482 466.598 482 L 482 482 482 436.500 L 482 391 256 391 L 30 391 30 436.500 M 102.170 452.687 C 98.741 453.383, 92.416 460.170, 91.656 463.969 C 91.295 465.773, 91 470.569, 91 474.625 L 91 482 106.116 482 L 121.233 482 120.840 472.218 C 120.515 464.146, 120.063 461.897, 118.249 459.350 C 114.407 453.954, 108.329 451.435, 102.170 452.687 M 252.170 452.687 C 248.741 453.383, 242.416 460.170, 241.656 463.969 C 241.295 465.773, 241 470.569, 241 474.625 L 241 482 256.116 482 L 271.233 482 270.840 472.218 C 270.515 464.146, 270.063 461.897, 268.249 459.350 C 264.407 453.954, 258.329 451.435, 252.170 452.687 M 402.170 452.687 C 398.741 453.383, 392.416 460.170, 391.656 463.969 C 391.295 465.773, 391 470.569, 391 474.625 L 391 482 406.116 482 L 421.233 482 420.840 472.218 C 420.515 464.146, 420.063 461.897, 418.249 459.350 C 414.407 453.954, 408.329 451.435, 402.170 452.687" stroke="none" fill="#2685f7" fill-rule="evenodd"/></svg>