<?xml version="1.0" standalone="no"?>
<!DOCTYPE svg PUBLIC "-//W3C//DTD SVG 20010904//EN"
 "http://www.w3.org/TR/2001/REC-SVG-20010904/DTD/svg10.dtd">
<svg version="1.0" xmlns="http://www.w3.org/2000/svg"
 width="512.000000pt" height="512.000000pt" viewBox="0 0 512.000000 512.000000"
 preserveAspectRatio="xMidYMid meet">

<g transform="translate(0.000000,512.000000) scale(0.100000,-0.100000)"
fill="#e9573e" stroke="none">
<path d="M3089 5100 c-63 -33 -73 -59 -79 -199 l-5 -124 -845 -282 c-465 -155
-860 -289 -877 -299 -19 -9 -42 -34 -53 -56 -20 -39 -20 -56 -20 -1630 l0
-1590 -90 0 c-112 0 -159 -20 -190 -80 -18 -36 -20 -58 -20 -290 l0 -250 -396
0 c-392 0 -397 0 -436 -22 -101 -57 -101 -199 0 -256 l40 -22 2441 0 c2428 0
2442 0 2481 20 45 23 80 80 80 130 0 50 -35 107 -80 130 -37 19 -58 20 -435
20 l-395 0 0 250 c0 232 -2 254 -20 290 -31 60 -78 80 -190 80 l-90 0 0 1893
0 1892 -23 40 c-21 38 -41 50 -355 208 -358 180 -372 184 -443 147z m376 -452
l145 -73 0 -836 0 -837 -150 -349 -149 -348 -1 1258 c0 691 2 1257 5 1257 3 0
70 -33 150 -72z m-455 -1667 l0 -1479 -124 -289 -123 -288 -327 -3 -326 -2 0
1105 0 1105 150 300 c161 324 166 339 130 410 -26 51 -48 62 -317 151 -123 41
-223 76 -223 79 0 4 1133 387 1153 389 4 1 7 -665 7 -1478z m-1222 788 c138
-46 252 -88 251 -94 0 -5 -119 -246 -264 -535 l-264 -525 0 624 c-1 494 2 622
12 619 6 -3 126 -43 265 -89z m22 -2049 l0 -800 -150 0 -150 0 0 505 0 505
147 295 c82 162 149 295 150 295 2 0 3 -360 3 -800z m1800 -195 l0 -605 -261
0 c-148 0 -259 4 -257 9 13 35 514 1201 516 1201 1 0 2 -272 2 -605z m-1800
-1065 l0 -160 -300 0 -300 0 0 160 0 160 300 0 300 0 0 -160z m1200 0 l0 -160
-450 0 -450 0 0 160 0 160 450 0 450 0 0 -160z m900 0 l0 -160 -300 0 -300 0
0 160 0 160 300 0 300 0 0 -160z"/>
<path d="M2486 3296 c-72 -43 -94 -122 -56 -196 23 -45 80 -80 130 -80 50 0
107 35 130 80 11 21 20 53 20 70 0 50 -35 107 -80 130 -52 26 -96 25 -144 -4z"/>
<path d="M2488 2699 c-43 -22 -78 -81 -78 -129 0 -50 35 -107 80 -130 21 -11
53 -20 70 -20 76 0 150 74 150 150 0 50 -35 107 -80 130 -49 25 -94 25 -142
-1z"/>
<path d="M2488 2099 c-43 -22 -78 -81 -78 -129 0 -50 35 -107 80 -130 21 -11
53 -20 70 -20 76 0 150 74 150 150 0 50 -35 107 -80 130 -49 25 -94 25 -142
-1z"/>
<path d="M2488 1499 c-43 -22 -78 -81 -78 -129 0 -74 76 -150 149 -150 77 0
151 74 151 150 0 50 -35 107 -80 130 -49 25 -94 25 -142 -1z"/>
</g>
</svg>
