<svg xmlns="http://www.w3.org/2000/svg" width="512" height="512" viewBox="0 0 512 512" version="1.1">
<path d="" stroke="none" fill="#e9573e" fill-rule="evenodd"/>
<path d="M 232.500 31.598 C 230.850 31.827, 224.458 32.705, 218.296 33.551 C 176.148 39.332, 130.435 59.203, 95.825 86.788 C 46.171 126.363, 12.450 184.390, 2.431 247.500 C -0.057 263.172, -0.591 298.584, 1.414 315 C 7.113 361.669, 24.947 404.876, 53.726 441.744 L 60.952 451 35.726 451.004 C 12.318 451.007, 10.265 451.151, 7.241 452.995 C -2.418 458.884, -2.418 473.116, 7.241 479.005 C 10.470 480.974, 12.790 480.993, 256 480.993 C 498.071 480.993, 501.545 480.965, 504.715 479.033 C 509.545 476.087, 513 469.966, 513 464.353 C 513 461.776, 512.702 459.965, 512.337 460.330 C 511.972 460.694, 510.851 459.640, 509.846 457.987 C 508.841 456.334, 506.552 454.088, 504.759 452.995 C 501.735 451.151, 499.682 451.007, 476.274 451.004 L 451.048 451 458.274 441.744 C 486.258 405.896, 505.147 360.904, 510.018 318.500 C 510.649 313, 511.579 307.719, 512.083 306.764 C 513.370 304.327, 513.290 263.703, 512 264.500 C 511.400 264.871, 511 263.594, 511 261.309 C 510.999 255.317, 507.353 234.499, 504.104 221.945 C 487.970 159.594, 447.866 105.096, 392 69.603 C 365.306 52.643, 328.200 38.878, 294.500 33.434 C 284.969 31.894, 239.973 30.562, 232.500 31.598 M 227.597 63.139 C 217.782 64.398, 202.752 67.557, 192.660 70.482 C 180.316 74.059, 165 80.075, 165 81.346 C 165 82.930, 195.309 152, 196.004 152 C 196.328 152, 204.309 134.338, 213.740 112.750 C 223.171 91.162, 232.032 70.912, 233.431 67.750 C 234.830 64.588, 235.643 62.057, 235.237 62.126 C 234.832 62.196, 231.393 62.652, 227.597 63.139 M 278.600 67.820 C 279.982 70.944, 288.829 91.162, 298.260 112.750 C 307.691 134.338, 315.672 152, 315.996 152 C 316.701 152, 347 82.919, 347 81.312 C 347 80.698, 345.762 79.733, 344.250 79.167 C 317.550 69.183, 304.892 65.935, 279.794 62.628 L 276.087 62.140 278.600 67.820 M 234.162 142.874 L 212.825 191.736 234.096 240.368 C 245.796 267.116, 255.652 289, 256 289 C 256.348 289, 266.204 267.116, 277.904 240.368 L 299.175 191.736 277.838 142.874 C 266.102 115.999, 256.275 94.011, 256 94.011 C 255.725 94.011, 245.898 115.999, 234.162 142.874 M 127.500 101.647 C 110.713 113.332, 93.597 129.062, 81.373 144.036 L 75.246 151.541 105.306 220.271 C 121.839 258.072, 135.651 289, 135.999 289 C 136.347 289, 146.205 267.114, 157.905 240.365 L 179.178 191.731 158.339 143.892 C 146.877 117.581, 137.050 96.059, 136.500 96.066 C 135.950 96.073, 131.900 98.584, 127.500 101.647 M 353.661 143.892 L 332.822 191.731 354.095 240.365 C 365.795 267.114, 375.653 289, 376.001 289 C 376.349 289, 390.161 258.072, 406.694 220.271 L 436.754 151.541 430.627 144.038 C 422.349 133.900, 408.284 119.962, 397.982 111.688 C 388.828 104.337, 376.765 95.983, 375.366 96.027 C 374.889 96.042, 365.123 117.581, 353.661 143.892 M 51.541 191.175 C 45.694 203.967, 41.202 216.332, 38.012 228.418 C 23.728 282.530, 30.096 339.333, 55.981 388.689 C 63.838 403.670, 77.026 423.376, 78.275 422 C 78.524 421.725, 87.831 400.652, 98.956 375.171 L 119.184 328.842 88.926 259.671 C 72.284 221.627, 57.910 188.802, 56.984 186.727 L 55.300 182.953 51.541 191.175 M 424.658 256.002 L 392.816 328.842 413.044 375.171 C 424.169 400.652, 433.476 421.725, 433.725 422 C 434.978 423.380, 448.189 403.628, 456.005 388.689 C 486.192 330.989, 489.676 263.156, 465.538 203.094 C 463.170 197.203, 460.169 190.309, 458.867 187.773 L 456.500 183.162 424.658 256.002 M 174.159 279.938 L 152.817 328.837 170.003 368.168 C 179.456 389.801, 187.311 407.627, 187.460 407.782 C 187.609 407.937, 191.921 406.025, 197.043 403.532 C 202.164 401.039, 206.843 399, 207.439 399 C 208.035 399, 215.421 383.212, 223.852 363.916 L 239.181 328.832 217.840 279.935 C 206.103 253.042, 196.275 231.038, 196 231.038 C 195.725 231.038, 185.896 253.043, 174.159 279.938 M 294.160 279.935 L 272.819 328.832 288.148 363.916 C 296.579 383.212, 303.965 399, 304.561 399 C 305.157 399, 309.836 401.039, 314.957 403.532 C 320.079 406.025, 324.391 407.937, 324.540 407.782 C 324.689 407.627, 332.544 389.801, 341.997 368.168 L 359.183 328.837 337.841 279.938 C 326.104 253.043, 316.275 231.038, 316 231.038 C 315.725 231.038, 305.897 253.042, 294.160 279.935 M 0.425 286 C 0.425 297.825, 0.569 302.663, 0.746 296.750 C 0.923 290.837, 0.923 281.163, 0.746 275.250 C 0.569 269.337, 0.425 274.175, 0.425 286 M 118.112 408.008 C 103.627 441.293, 100.935 448.216, 101.985 449.481 C 103.049 450.764, 107.069 451, 127.888 451 L 152.531 451 154.223 446.250 C 155.154 443.637, 157.543 438.802, 159.533 435.505 L 163.149 429.510 156.184 413.505 C 152.353 404.702, 146.357 390.872, 142.859 382.770 C 139.362 374.669, 136.275 368.044, 136 368.047 C 135.725 368.050, 127.675 386.033, 118.112 408.008 M 251 378.583 C 248.525 384.386, 246.350 389.555, 246.167 390.068 C 245.975 390.605, 250.142 391, 256 391 C 261.858 391, 266.025 390.605, 265.833 390.068 C 264.260 385.666, 256.390 368.030, 256 368.030 C 255.725 368.030, 253.475 372.779, 251 378.583 M 369.141 382.770 C 365.643 390.872, 359.647 404.702, 355.816 413.505 L 348.851 429.510 352.467 435.505 C 354.457 438.802, 356.846 443.637, 357.777 446.250 L 359.469 451 384.112 451 C 404.931 451, 408.951 450.764, 410.015 449.481 C 411.065 448.216, 408.373 441.293, 393.888 408.008 C 384.325 386.033, 376.275 368.050, 376 368.047 C 375.725 368.044, 372.638 374.669, 369.141 382.770 M 244.500 422.019 C 221.752 424.336, 200.800 433.469, 189.945 445.799 L 185.807 450.500 220.903 450.763 C 240.207 450.907, 271.793 450.907, 291.097 450.763 L 326.193 450.500 322.015 445.754 C 316.359 439.329, 304.497 431.731, 294.444 428.093 C 279.753 422.777, 260.293 420.411, 244.500 422.019 M 0.300 466 C 0.300 469.025, 0.487 470.262, 0.716 468.750 C 0.945 467.238, 0.945 464.762, 0.716 463.250 C 0.487 461.738, 0.300 462.975, 0.300 466" stroke="none" fill="#e9573e" fill-rule="evenodd"/>
</svg>