<svg xmlns="http://www.w3.org/2000/svg" width="512" height="512" viewBox="0 0 512 512" version="1.1"><path d="" stroke="none" fill="#080404" fill-rule="evenodd"/><path d="M 218.241 1.995 C 216.448 3.088, 214.088 5.448, 212.995 7.241 C 211.151 10.265, 211.007 12.318, 211.004 35.750 L 211 61 201.250 61.004 C 190.207 61.008, 186.511 62.473, 182.995 68.241 C 181.130 71.298, 181.007 73.328, 181.004 101.054 L 181 130.607 168.416 136.480 C 158.345 141.180, 155.351 143.062, 153.416 145.908 L 151 149.464 150.998 190.482 L 150.996 231.500 138.248 238 C 119.422 247.599, 121 242.644, 121 292.169 L 121 333.042 108.416 339.198 C 90.571 347.927, 91 347.125, 91 371.732 L 91 391 50.750 391.004 C 12.351 391.007, 10.350 391.099, 7.241 392.995 C 5.448 394.088, 3.088 396.448, 1.995 398.241 C 0.082 401.378, 0.007 403.368, 0.007 451.500 C 0.007 499.632, 0.082 501.622, 1.995 504.759 C 3.088 506.552, 5.448 508.912, 7.241 510.005 C 10.470 511.974, 12.790 511.993, 256 511.993 C 498.071 511.993, 501.545 511.965, 504.715 510.033 C 506.483 508.954, 509.070 506.265, 510.465 504.056 L 513 500.040 513 449.853 C 513 422.251, 512.702 399.965, 512.337 400.330 C 511.972 400.694, 510.851 399.640, 509.846 397.987 C 508.841 396.334, 506.552 394.088, 504.759 392.995 C 501.650 391.099, 499.649 391.007, 461.250 391.004 L 421 391 420.996 336.250 C 420.993 283.382, 420.924 281.388, 419.005 278.241 C 415.489 272.473, 411.793 271.008, 400.750 271.004 L 391 271 390.996 231.250 C 390.993 193.350, 390.900 191.348, 389.005 188.241 C 385.489 182.473, 381.793 181.008, 370.750 181.004 L 361 181 360.996 141.750 C 360.993 104.348, 360.899 102.347, 359.005 99.241 C 355.342 93.233, 351.803 91.869, 340.749 92.204 L 330.998 92.500 330.995 82 C 330.993 73.286, 330.655 70.946, 329.005 68.241 C 325.489 62.473, 321.793 61.008, 310.750 61.004 L 301 61 300.996 35.750 C 300.993 12.318, 300.849 10.265, 299.005 7.241 C 297.912 5.448, 295.552 3.088, 293.759 1.995 C 290.673 0.113, 288.665 0.007, 256 0.007 C 223.335 0.007, 221.327 0.113, 218.241 1.995 M 241 45.500 L 241 61 256 61 L 271 61 271 45.500 L 271 30 256 30 L 241 30 241 45.500 M 211 105.107 C 211 115.980, 211.287 119.105, 212.250 118.738 C 228.022 112.730, 262.360 103.523, 284 99.500 C 302.136 96.129, 301 96.528, 301 93.531 L 301 91 256 91 L 211 91 211 105.107 M 310.500 126.121 C 270.379 132.117, 231.324 143.031, 194.750 158.467 L 181 164.270 181 191.135 C 181 205.911, 181.186 218, 181.414 218 C 181.642 218, 185.836 216.471, 190.735 214.601 C 216.807 204.652, 252.561 194.643, 280.161 189.569 C 295.642 186.723, 322.536 183, 327.616 183 L 331 183 331 153.500 L 331 124 327.250 124.089 C 325.188 124.138, 317.650 125.053, 310.500 126.121 M 330.830 213.541 C 273.330 218.999, 218.195 234.114, 164.750 259.071 L 151 265.492 151 291.853 C 151 312.553, 151.268 318.102, 152.250 317.692 C 218.537 290.014, 276.613 275.970, 342.075 271.788 L 361 270.579 361 241.289 L 361 212 352.750 212.122 C 348.212 212.189, 338.348 212.828, 330.830 213.541 M 359 301.677 C 281.225 304.143, 206.877 323.890, 130.005 362.498 L 121 367.020 121 379.010 L 121 391 196 391 L 271 391 271.004 381.250 C 271.008 370.207, 272.473 366.511, 278.241 362.995 C 285.065 358.834, 294.764 361.285, 299.005 368.241 C 300.629 370.903, 300.993 373.286, 300.996 381.250 L 301 391 316 391 L 331 391 331.004 366.250 C 331.007 343.317, 331.153 341.261, 332.995 338.241 C 338.884 328.582, 353.116 328.582, 359.005 338.241 C 360.847 341.261, 360.993 343.317, 360.996 366.250 L 361 391 376 391 L 391 391 391 346 L 391 301 379.250 301.204 C 372.788 301.315, 363.675 301.528, 359 301.677 M 0.464 451.500 C 0.464 479.550, 0.592 491.169, 0.749 477.320 C 0.906 463.471, 0.906 440.521, 0.749 426.320 C 0.593 412.119, 0.465 423.450, 0.464 451.500 M 30 451.500 L 30 482 45.500 482 L 61 482 61.004 472.250 C 61.007 464.286, 61.371 461.903, 62.995 459.241 C 68.884 449.582, 83.116 449.582, 89.005 459.241 C 90.629 461.903, 90.993 464.286, 90.996 472.250 L 91 482 121 482 L 151 482 151.004 472.250 C 151.008 461.207, 152.473 457.511, 158.241 453.995 C 165.065 449.834, 174.764 452.285, 179.005 459.241 C 180.629 461.903, 180.993 464.286, 180.996 472.250 L 181 482 211 482 L 241 482 241.004 472.250 C 241.007 464.286, 241.371 461.903, 242.995 459.241 C 248.884 449.582, 263.116 449.582, 269.005 459.241 C 270.629 461.903, 270.993 464.286, 270.996 472.250 L 271 482 301 482 L 331 482 331.004 472.250 C 331.007 464.286, 331.371 461.903, 332.995 459.241 C 338.884 449.582, 353.116 449.582, 359.005 459.241 C 360.629 461.903, 360.993 464.286, 360.996 472.250 L 361 482 391 482 L 421 482 421.004 472.250 C 421.008 461.207, 422.473 457.511, 428.241 453.995 C 435.065 449.834, 444.764 452.285, 449.005 459.241 C 450.629 461.903, 450.993 464.286, 450.996 472.250 L 451 482 466.500 482 L 482 482 482 451.500 L 482 421 256 421 L 30 421 30 451.500" stroke="none" fill="#e68416" fill-rule="evenodd"/></svg>