<svg xmlns="http://www.w3.org/2000/svg" width="512" height="512" viewBox="0 0 512 512" version="1.1"><path d="" stroke="none" fill="#080404" fill-rule="evenodd"/><path d="M 8.218 1.663 C 6.413 2.553, 3.938 4.680, 2.718 6.390 C 0.613 9.342, 0.485 10.628, 0.197 31.686 C -0.070 51.287, 0.135 54.883, 1.955 62.549 C 8.003 88.015, 27.237 108.586, 52.476 116.584 L 59.500 118.810 60 144.702 C 60.552 173.304, 60.710 174.023, 67.304 178.044 C 69.894 179.623, 72.350 179.993, 80.250 179.996 L 90 180 90 194.422 L 90 208.844 65.750 209.172 C 43.426 209.474, 41.222 209.663, 38.003 211.554 C 36.080 212.684, 33.493 215.113, 32.253 216.952 C 30.023 220.261, 30 220.652, 30.004 254.898 C 30.007 287.662, 30.113 289.673, 31.995 292.759 C 33.088 294.552, 35.448 296.912, 37.241 298.005 C 40.261 299.847, 42.317 299.993, 65.250 299.996 L 90 300 90.004 400.750 C 90.007 499.519, 90.047 501.564, 91.995 504.759 C 93.088 506.552, 95.448 508.912, 97.241 510.005 C 100.327 511.887, 102.335 511.993, 135 511.993 C 167.665 511.993, 169.673 511.887, 172.759 510.005 C 174.552 508.912, 176.912 506.552, 178.005 504.759 C 179.953 501.564, 179.993 499.519, 179.996 400.750 L 180 300 256 300 L 332 300 332.004 400.750 C 332.007 499.519, 332.047 501.564, 333.995 504.759 C 335.088 506.552, 337.448 508.912, 339.241 510.005 C 342.327 511.887, 344.335 511.993, 377 511.993 C 409.665 511.993, 411.673 511.887, 414.759 510.005 C 416.552 508.912, 418.912 506.552, 420.005 504.759 C 421.953 501.564, 421.993 499.519, 421.996 400.750 L 422 300 446.750 299.996 C 469.683 299.993, 471.739 299.847, 474.759 298.005 C 476.552 296.912, 478.912 294.552, 480.005 292.759 C 481.887 289.673, 481.993 287.662, 481.996 254.898 C 482 220.652, 481.977 220.261, 479.747 216.952 C 478.507 215.113, 475.920 212.684, 473.997 211.554 C 470.778 209.663, 468.574 209.474, 446.250 209.172 L 422 208.844 422 194.422 L 422 180 431.750 179.996 C 439.650 179.993, 442.106 179.623, 444.696 178.044 C 451.290 174.023, 451.448 173.304, 452 144.702 L 452.500 118.810 459.524 116.584 C 484.013 108.824, 503.983 88.003, 509.499 64.480 C 510.399 60.641, 511.555 56.719, 512.068 55.764 C 513.194 53.666, 513.333 9.676, 512.212 10.369 C 511.779 10.637, 510.844 9.544, 510.134 7.940 C 509.424 6.337, 507.471 4.047, 505.794 2.853 C 500.348 -1.024, 495.490 -0.673, 471.500 5.331 C 421.588 17.823, 382.970 24.532, 335.500 28.959 C 236.141 38.226, 140.661 30.509, 38.961 4.990 C 17.558 -0.380, 13.299 -0.841, 8.218 1.663 M 0.429 33.500 C 0.429 46.150, 0.573 51.187, 0.747 44.694 C 0.922 38.200, 0.921 27.850, 0.746 21.694 C 0.571 15.537, 0.428 20.850, 0.429 33.500 M 30.374 44.520 C 31.748 64.065, 40.529 77.617, 56.820 85.335 L 63.500 88.500 256 88.500 L 448.500 88.500 455.180 85.335 C 466.362 80.038, 474.626 71.106, 478.831 59.770 C 481.265 53.211, 483.015 35, 481.211 35 C 480.615 35, 474.473 36.343, 467.562 37.985 C 326.698 71.452, 189.974 71.758, 48.600 38.925 C 39.306 36.766, 31.252 35, 30.703 35 C 30.062 35, 29.944 38.405, 30.374 44.520 M 90 134.500 L 90 149 256 149 L 422 149 422 134.500 L 422 120 256 120 L 90 120 90 134.500 M 120 194.500 L 120 209 135 209 L 150 209 150 194.500 L 150 180 135 180 L 120 180 120 194.500 M 180 194.500 L 180 209 195 209 L 210 209 210 194.500 L 210 180 195 180 L 180 180 180 194.500 M 240 194.500 L 240 209 256 209 L 272 209 272 194.500 L 272 180 256 180 L 240 180 240 194.500 M 302 194.500 L 302 209 317 209 L 332 209 332 194.500 L 332 180 317 180 L 302 180 302 194.500 M 362 194.500 L 362 209 377 209 L 392 209 392 194.500 L 392 180 377 180 L 362 180 362 194.500 M 60 254.500 L 60 269 256 269 L 452 269 452 254.500 L 452 240 256 240 L 60 240 60 254.500 M 120 390.500 L 120 481 135 481 L 150 481 150 390.500 L 150 300 135 300 L 120 300 120 390.500 M 362 390.500 L 362 481 377 481 L 392 481 392 390.500 L 392 300 377 300 L 362 300 362 390.500" stroke="none" fill="#2eae4a" fill-rule="evenodd"/></svg>