<svg xmlns="http://www.w3.org/2000/svg" width="512" height="512" viewBox="0 0 512 512" version="1.1"><path d="" stroke="none" fill="#080404" fill-rule="evenodd"/><path d="M 150.845 82.824 C 122.725 101.374, 93.145 125.763, 66.404 152.447 C 38.229 180.562, 23.535 199.655, 12.492 222.500 C 2.892 242.359, -0.003 254.147, 0.006 273.338 C 0.017 297.189, 5.126 319.104, 16.652 344.750 C 17.040 345.613, 16.175 346.001, 13.857 346.004 C 9.564 346.009, 4.532 349.078, 1.995 353.241 C 0.113 356.327, 0.007 358.335, 0.007 391 C 0.007 423.665, 0.113 425.673, 1.995 428.759 C 3.088 430.552, 5.448 432.912, 7.241 434.005 C 10.470 435.974, 12.790 435.993, 256 435.993 C 498.071 435.993, 501.545 435.965, 504.715 434.033 C 506.483 432.954, 509.070 430.265, 510.465 428.056 L 513 424.040 513 389.353 C 513 370.276, 512.702 354.965, 512.337 355.330 C 511.972 355.694, 510.851 354.640, 509.846 352.987 C 507.478 349.093, 502.356 346.008, 498.250 346.004 C 496.462 346.002, 495 345.831, 495 345.624 C 495 345.418, 496.183 342.605, 497.629 339.374 C 504.004 325.133, 511 299.900, 511 291.152 C 511 289.483, 511.450 287.840, 512 287.500 C 512.592 287.134, 513 280.970, 513 272.382 C 513 264.367, 512.609 258.123, 512.126 258.422 C 511.646 258.719, 510.956 256.729, 510.594 254 C 508.922 241.391, 498.800 218.385, 487.496 201.500 C 477.284 186.245, 467.104 174.051, 450.042 156.636 C 426.077 132.175, 401.310 111.156, 371.248 89.766 C 353.525 77.155, 351.378 76, 345.659 76 C 341.904 76, 339.775 76.947, 331.859 82.141 C 313.541 94.159, 281.893 119.032, 265.343 134.417 C 260.857 138.588, 256.706 142, 256.119 142 C 255.531 142, 251.327 138.599, 246.775 134.442 C 230.680 119.743, 204.433 98.887, 184.745 85.153 C 173.169 77.079, 170.919 76, 165.645 76 C 161.819 76, 159.733 76.962, 150.845 82.824 M 153.337 118.637 C 108.286 151.511, 70.652 187.895, 49.919 218.620 C 43.207 228.566, 34.656 246.613, 32.443 255.500 C 26.778 278.251, 34.151 314.733, 49.531 340.050 L 53.145 346 72.781 346 L 92.416 346 88.348 341.750 C 70.674 323.289, 60.227 296.128, 61.200 271.165 C 61.560 261.916, 62.047 259.484, 64.863 252.842 C 68.573 244.093, 76.770 231.349, 86.631 219 C 103.336 198.081, 153.377 152.322, 162.125 149.966 C 164.773 149.253, 167.194 149.245, 169.773 149.939 C 173.778 151.017, 189.327 163.198, 206 178.318 L 215.500 186.933 218.500 183.223 C 220.150 181.182, 224.396 176.171, 227.935 172.086 L 234.371 164.659 229.435 160.173 C 211.972 144.301, 168.588 110, 165.977 110 C 165.535 110, 159.847 113.887, 153.337 118.637 M 330.872 120.656 C 307.688 137.845, 288.759 154.134, 268.947 173.947 C 232.224 210.670, 215.451 237.278, 212.034 264.234 C 209.409 284.939, 216.434 315.383, 228.825 337 L 233.697 345.500 346.500 345.500 L 459.303 345.500 464.175 337 C 480.024 309.350, 485.635 273.669, 477.854 250 C 467.335 217.999, 433.232 177.613, 382.038 136.533 C 368.825 125.931, 347.209 110, 346.035 110 C 345.600 110, 338.777 114.795, 330.872 120.656 M 157.403 191.648 C 144.855 202.204, 115.021 232.617, 107.150 242.876 C 99.437 252.930, 93.477 262.850, 91.949 268.179 C 90.650 272.708, 92.402 285.892, 95.523 295.068 C 99.089 305.553, 105.266 315.365, 113.431 323.514 C 125.401 335.462, 140.506 342.873, 157.138 344.958 C 169.436 346.500, 198.372 346.351, 197.652 344.750 C 186.142 319.140, 181.017 297.185, 181.006 273.434 C 180.997 254.528, 183.744 242.798, 192.523 224.268 L 197.844 213.037 191.172 206.618 C 183.066 198.819, 166.981 185, 166.009 185 C 165.622 185, 161.749 187.992, 157.403 191.648 M 0.400 273.500 C 0.401 281.750, 0.556 284.992, 0.744 280.704 C 0.932 276.417, 0.931 269.667, 0.742 265.704 C 0.552 261.742, 0.399 265.250, 0.400 273.500 M 0.451 391 C 0.451 410.525, 0.585 418.513, 0.748 408.750 C 0.912 398.988, 0.912 383.013, 0.748 373.250 C 0.585 363.488, 0.451 371.475, 0.451 391 M 30 391 L 30 406 256 406 L 482 406 482 391 L 482 376 256 376 L 30 376 30 391" stroke="none" fill="#f220a0" fill-rule="evenodd"/></svg>