<svg xmlns="http://www.w3.org/2000/svg" width="512" height="512" viewBox="0 0 512 512" version="1.1"><path d="" stroke="none" fill="#e68416" fill-rule="evenodd"/><path d="M 237.268 2.005 C 214.559 7.956, 195.628 24.313, 186.586 45.796 C 181.644 57.536, 181.031 62.470, 181.015 90.590 C 181.002 113.310, 181.255 117.676, 182.971 124.386 C 185.508 134.306, 189.897 143.437, 196.012 151.516 C 198.692 155.057, 200.573 158.128, 200.192 158.342 C 199.812 158.556, 192.300 161.097, 183.500 163.990 C 164.716 170.165, 156.687 174.105, 147.576 181.620 C 137.121 190.244, 129.250 202.006, 123.879 217.033 C 121.609 223.384, 121.561 224.343, 121.230 270.627 L 120.893 317.754 114.859 318.436 C 89.938 321.256, 68.613 339.601, 62.522 363.460 C 61.349 368.052, 61 375.453, 61 395.710 L 61 422 50.648 422 C 35.049 422, 36.707 420.164, 16.800 459.500 C 2.736 487.291, 0.093 493.210, 0.054 497 C -0.002 502.415, 2.644 507.203, 7.241 510.005 C 10.470 511.974, 12.790 511.993, 256 511.993 C 498.071 511.993, 501.545 511.965, 504.715 510.033 C 509.545 507.087, 513 500.966, 513 495.353 C 513 492.776, 512.679 490.988, 512.286 491.381 C 511.893 491.773, 504.131 477.336, 495.036 459.297 C 475.316 420.186, 476.955 422, 461.352 422 L 451 422 451 395.710 C 451 366.738, 450.426 362.573, 444.851 351.119 C 440.907 343.014, 430.243 331.699, 421.859 326.722 C 414.478 322.340, 405.711 319.406, 397.087 318.430 L 391 317.742 391 273.818 C 391 224.491, 390.711 221.739, 384.042 207.500 C 379.091 196.932, 372.591 188.356, 364.424 181.620 C 355.313 174.105, 347.284 170.165, 328.500 163.990 C 319.700 161.097, 312.188 158.556, 311.808 158.342 C 311.427 158.128, 313.308 155.057, 315.988 151.516 C 322.103 143.437, 326.492 134.306, 329.029 124.386 C 330.744 117.682, 331 113.278, 331 90.500 C 331 67.864, 330.737 63.293, 329.060 56.735 C 322.224 30.006, 301.097 8.802, 274.532 2.008 C 264.105 -0.659, 247.438 -0.660, 237.268 2.005 M 248.677 31.106 C 230.679 33.703, 214.722 50.026, 212.039 68.583 C 210.722 77.700, 210.738 104.793, 212.067 112.981 C 213.660 122.800, 217.988 130.845, 225.905 138.704 C 233.830 146.569, 235 148.490, 235 153.633 C 235 159.141, 228.953 176.820, 225.976 180.018 C 224.588 181.508, 220.650 183.749, 217.226 184.998 L 211 187.268 211.020 191.384 C 211.091 206.218, 215.691 218.300, 224.696 227.304 C 241.986 244.594, 270.030 244.751, 286.934 227.652 C 295.997 218.484, 299.525 210.342, 300.599 196.115 L 301.260 187.363 294.904 185.045 C 291.408 183.771, 287.412 181.508, 286.024 180.018 C 283.047 176.820, 277 159.141, 277 153.633 C 277 148.490, 278.170 146.569, 286.095 138.704 C 294.012 130.845, 298.340 122.800, 299.933 112.981 C 301.262 104.793, 301.278 77.700, 299.961 68.583 C 297.635 52.496, 285.864 38.268, 270.500 32.974 C 264.025 30.743, 255.974 30.054, 248.677 31.106 M 175 200.084 C 163.039 206.613, 153.904 219.686, 151.975 233.034 C 151.461 236.590, 151.031 258.669, 151.020 282.099 L 151 324.697 159.250 326.862 C 174.322 330.816, 189.340 333.894, 203.758 335.982 C 221.190 338.507, 240 339.715, 240 338.309 C 240 336.047, 236.033 326.017, 233.705 322.394 C 230.650 317.639, 222.740 310.024, 218 307.276 C 212.995 304.373, 205.531 302.217, 197.839 301.450 C 190.507 300.719, 186.058 298.544, 183.304 294.343 C 181.649 291.817, 181.459 287.697, 181 244.336 L 180.500 197.082 175 200.084 M 330.996 243.691 C 330.993 288.635, 330.913 290.630, 329.005 293.759 C 326.105 298.515, 321.759 300.721, 313.687 301.531 C 298.155 303.091, 286.034 310.232, 278.277 322.394 C 275.959 326.028, 272 336.066, 272 338.309 C 272 339.721, 290.865 338.502, 308.242 335.969 C 323.507 333.744, 340.705 330.243, 353.250 326.808 L 361 324.686 360.980 282.093 C 360.969 258.667, 360.549 236.662, 360.048 233.194 C 358.100 219.721, 348.800 206.370, 336.973 200.066 L 331 196.883 330.996 243.691 M 211 264.429 L 211 271.858 216.750 273.522 C 229.309 277.157, 242.843 285.582, 251.384 295.082 L 255.659 299.837 263.622 292.127 C 272.214 283.808, 284.333 276.679, 295.250 273.521 L 301 271.858 301 264.505 L 301 257.151 291.750 261.973 C 277.558 269.370, 272.971 270.459, 256 270.459 C 244.682 270.459, 240.183 270.051, 235.500 268.599 C 228.871 266.545, 214.513 259.640, 213.517 258.027 C 211.883 255.384, 211 257.630, 211 264.429 M 111.703 350.442 C 103.262 353.453, 96.935 359.345, 93.328 367.554 C 91.873 370.864, 91.529 375.572, 91.197 396.750 L 90.800 422 256 422 L 421.200 422 420.850 396.750 L 420.500 371.500 417.710 365.818 C 412.848 355.918, 403.983 349.987, 393 349.285 C 387.426 348.929, 384.362 349.522, 371.500 353.443 C 333.335 365.077, 297.299 370.352, 256 370.352 C 214.843 370.352, 179.209 365.154, 140.530 353.508 C 124.642 348.724, 118.386 348.058, 111.703 350.442 M 47.234 466.509 C 43.255 474.489, 40 481.239, 40 481.509 C 40 481.779, 137.200 482, 256 482 C 374.800 482, 472 481.779, 472 481.509 C 472 481.239, 468.745 474.489, 464.766 466.509 L 457.532 452 256 452 L 54.468 452 47.234 466.509 M 0.300 497 C 0.300 500.025, 0.487 501.262, 0.716 499.750 C 0.945 498.238, 0.945 495.762, 0.716 494.250 C 0.487 492.738, 0.300 493.975, 0.300 497" stroke="none" fill="#9034FF" fill-rule="evenodd"/></svg>