<svg xmlns="http://www.w3.org/2000/svg" width="512" height="512" viewBox="0 0 512 512" version="1.1"><path d="" stroke="none" fill="#2eae4a" fill-rule="evenodd"/><path d="M 215.405 3.834 C 174.673 30.278, 141.602 77.347, 128.045 128.170 C 122.283 149.767, 121.005 162.599, 121.040 198.500 C 121.064 223.589, 121.365 231.040, 122.435 233 C 123.185 234.375, 126.431 237.549, 129.649 240.052 C 136.438 245.335, 138.997 249.700, 138.997 256 C 138.997 262.300, 136.438 266.665, 129.649 271.948 C 126.431 274.451, 123.185 277.625, 122.435 279 C 121.324 281.036, 121.065 293.464, 121.039 346 C 121.008 408.630, 121.065 410.594, 122.995 413.759 C 126.511 419.527, 130.207 420.992, 141.250 420.996 L 151 421 151 451.500 L 151 482 126.250 482.004 C 103.317 482.007, 101.261 482.153, 98.241 483.995 C 88.582 489.884, 88.582 504.116, 98.241 510.005 C 101.456 511.966, 103.594 511.993, 256 511.993 C 408.406 511.993, 410.544 511.966, 413.759 510.005 C 423.418 504.116, 423.418 489.884, 413.759 483.995 C 410.739 482.153, 408.683 482.007, 385.750 482.004 L 361 482 361 451.500 L 361 421 370.750 420.996 C 381.793 420.992, 385.489 419.527, 389.005 413.759 C 390.935 410.594, 390.992 408.630, 390.961 346 C 390.935 293.464, 390.676 281.036, 389.565 279 C 388.815 277.625, 385.569 274.451, 382.351 271.948 C 375.562 266.665, 373.003 262.300, 373.003 256 C 373.003 249.700, 375.562 245.335, 382.351 240.052 C 385.569 237.549, 388.815 234.375, 389.565 233 C 391.650 229.178, 391.537 172.356, 389.412 155.842 C 382.339 100.890, 352.730 47.708, 310.440 13.997 C 296.882 3.189, 291.333 -0.001, 286.095 0.004 C 280.579 0.008, 275.792 2.653, 272.995 7.241 C 271.027 10.469, 271.007 12.773, 271.004 246.250 L 271 482 256 482 L 241 482 240.996 246.250 C 240.993 12.773, 240.973 10.469, 239.005 7.241 C 236.208 2.653, 231.421 0.008, 225.905 0.004 C 222.267 0.001, 220.080 0.799, 215.405 3.834 M 202.650 54.970 C 178.683 80.057, 162.128 112.273, 155.046 147.605 C 152.680 159.414, 151.021 180.217, 151.009 198.250 L 151 211 181 211 L 211 211 211 129 C 211 83.900, 210.835 47, 210.633 47 C 210.431 47, 206.839 50.587, 202.650 54.970 M 301 128.784 L 301 211 331 211 L 361 211 360.985 198.750 C 360.936 158.332, 355.197 129.615, 341.551 101.500 C 332.879 83.633, 319.445 64.630, 306.582 52.034 L 301 46.568 301 128.784 M 168.738 245.250 C 169.157 247.588, 169.500 252.425, 169.500 256 C 169.500 259.575, 169.157 264.413, 168.738 266.750 L 167.976 271 189.488 271 L 211 271 211 256 L 211 241 189.488 241 L 167.976 241 168.738 245.250 M 301 256 L 301 271 322.512 271 L 344.024 271 343.262 266.750 C 342.269 261.211, 342.287 249.505, 343.295 244.750 L 344.091 241 322.545 241 L 301 241 301 256 M 151 346 L 151 391 181 391 L 211 391 211 346 L 211 301 181 301 L 151 301 151 346 M 301 346 L 301 391 331 391 L 361 391 361 346 L 361 301 331 301 L 301 301 301 346 M 181 451.500 L 181 482 196 482 L 211 482 211 451.500 L 211 421 196 421 L 181 421 181 451.500 M 301 451.500 L 301 482 316 482 L 331 482 331 451.500 L 331 421 316 421 L 301 421 301 451.500" stroke="none" fill="#2eae4a" fill-rule="evenodd"/></svg>