<svg xmlns="http://www.w3.org/2000/svg" width="512" height="512" viewBox="0 0 512 512" version="1.1"><path d="" stroke="none" fill="#080404" fill-rule="evenodd"/><path d="M 248.241 1.995 C 246.448 3.088, 244.088 5.448, 242.995 7.241 C 241.075 10.389, 241.007 12.383, 241.004 65.750 L 241 121 171.250 121.004 C 103.414 121.007, 101.411 121.062, 98.241 122.995 C 96.448 124.088, 94.088 126.448, 92.995 128.241 C 91.032 131.460, 91.007 133.642, 91.004 306.750 L 91 482 50.750 482.004 C 12.351 482.007, 10.350 482.099, 7.241 483.995 C -2.418 489.884, -2.418 504.116, 7.241 510.005 C 10.470 511.974, 12.790 511.993, 256 511.993 C 498.071 511.993, 501.545 511.965, 504.715 510.033 C 509.545 507.087, 513 500.966, 513 495.353 C 513 492.776, 512.702 490.965, 512.337 491.330 C 511.972 491.694, 510.851 490.640, 509.846 488.987 C 508.841 487.334, 506.552 485.088, 504.759 483.995 C 501.650 482.099, 499.649 482.007, 461.250 482.004 L 421 482 420.996 306.750 C 420.993 133.642, 420.968 131.460, 419.005 128.241 C 417.912 126.448, 415.552 124.088, 413.759 122.995 C 410.589 121.062, 408.586 121.007, 340.750 121.004 L 271 121 271 105.500 L 271 90 310.750 89.996 C 348.650 89.993, 350.652 89.900, 353.759 88.005 C 355.552 86.912, 357.912 84.552, 359.005 82.759 C 360.887 79.673, 360.993 77.665, 360.993 45 C 360.993 12.335, 360.887 10.327, 359.005 7.241 C 357.912 5.448, 355.552 3.088, 353.759 1.995 C 350.623 0.082, 348.633 0.007, 301 0.007 C 253.367 0.007, 251.377 0.082, 248.241 1.995 M 271 45 L 271 60 301 60 L 331 60 331 45 L 331 30 301 30 L 271 30 271 45 M 121 316.500 L 121 482 151 482 L 181 482 181.017 379.250 C 181.037 262.639, 180.625 269.090, 189.140 252.118 C 198.561 233.342, 215.323 219.314, 235.250 213.528 L 241 211.858 241.004 201.679 C 241.007 193.286, 241.356 190.928, 242.995 188.241 C 248.884 178.582, 263.116 178.582, 269.005 188.241 C 270.644 190.928, 270.993 193.286, 270.996 201.679 L 271 211.858 276.750 213.530 C 297.164 219.464, 314.208 233.988, 323.656 253.500 C 331.266 269.217, 330.963 264.016, 330.983 379.250 L 331 482 361 482 L 391 482 391 316.500 L 391 151 256 151 L 121 151 121 316.500 M 248.677 242.106 C 230.679 244.703, 214.722 261.026, 212.039 279.583 C 211.428 283.812, 211.032 324.488, 211.020 384.250 L 211 482 256 482 L 301 482 300.980 384.250 C 300.968 324.488, 300.572 283.812, 299.961 279.583 C 297.635 263.496, 285.864 249.268, 270.500 243.974 C 264.025 241.743, 255.974 241.054, 248.677 242.106 M 0.300 497 C 0.300 500.025, 0.487 501.262, 0.716 499.750 C 0.945 498.238, 0.945 495.762, 0.716 494.250 C 0.487 492.738, 0.300 493.975, 0.300 497" stroke="none" fill="#4246d4" fill-rule="evenodd"/></svg>