<svg xmlns="http://www.w3.org/2000/svg" width="512" height="512" viewBox="0 0 512 512" version="1.1"><path d="" stroke="none" fill="#080404" fill-rule="evenodd"/><path d="M 249.241 1.995 C 243.348 5.587, 242.008 9.130, 242.004 21.121 L 242 31.742 235.928 32.429 C 215.623 34.726, 190.004 46.287, 171 61.730 C 117.511 105.195, 106.183 183.808, 145.038 241.896 C 150.986 250.788, 161.871 262.618, 173.250 272.557 C 176.412 275.320, 179 278.154, 179 278.856 C 179 279.558, 176.412 278.105, 173.250 275.626 C 65.900 191.482, 52.147 180.916, 48.750 179.968 C 43.218 178.426, 37.982 180.170, 33.608 185.012 C 26.698 192.661, 24.268 185.829, 76.529 305.690 L 123.058 412.405 138.036 458.076 C 146.274 483.196, 153.950 504.938, 155.095 506.394 C 159.732 512.288, 154.493 512, 257 512 C 359.503 512, 354.269 512.288, 358.903 506.396 C 360.047 504.942, 367.928 482.771, 376.418 457.126 L 391.854 410.500 436.927 305.331 C 473.280 220.508, 481.999 199.324, 481.996 195.831 C 481.986 183.762, 468.489 176.790, 458.390 183.637 C 455.146 185.836, 352.562 266.058, 339.329 276.743 C 335.850 279.553, 335.246 279.776, 335.687 278.087 C 335.979 276.974, 338.305 274.374, 340.858 272.308 C 368.626 249.846, 385.998 219.624, 391.066 184.961 C 391.806 179.903, 392.061 170.720, 391.740 160.665 C 391.145 141.968, 388.184 128.314, 381.251 112.299 C 363.656 71.655, 326.356 41.559, 283.500 33.428 C 278.550 32.489, 273.938 31.573, 273.250 31.392 C 272.353 31.156, 271.999 28.162, 271.996 20.781 C 271.993 12.287, 271.647 9.934, 270.005 7.241 C 265.764 0.285, 256.065 -2.166, 249.241 1.995 M 245.512 62.073 C 203.814 66.639, 168.345 96.723, 156.510 137.561 C 151.525 154.763, 151.533 177.215, 156.530 194.560 C 159.118 203.543, 165.441 217.773, 168.501 221.500 C 170.094 223.440, 170.129 223.410, 169.661 220.500 C 167.773 208.767, 166.809 197.830, 167.390 194.732 C 168.682 187.848, 177.302 182.078, 184.315 183.404 C 191.384 184.740, 192.696 186.479, 225 237.318 C 242.325 264.584, 256.725 286.904, 257 286.919 C 257.275 286.933, 271.648 264.652, 288.940 237.405 C 308.260 206.963, 321.512 187.059, 323.318 185.774 C 329.973 181.035, 340.114 182.988, 344.730 189.898 C 347.457 193.980, 347.639 199.400, 345.486 212.500 C 343.672 223.542, 343.679 223.997, 345.614 221.500 C 350.419 215.299, 356.875 199.252, 359.639 186.639 C 361.723 177.126, 361.762 155.884, 359.714 145.905 C 357.532 135.273, 352.150 121.478, 346.392 111.758 C 339.687 100.439, 322.561 83.313, 311.242 76.608 C 291.578 64.959, 267.592 59.655, 245.512 62.073 M 84.215 246.081 C 84.541 246.951, 98.871 279.914, 116.059 319.331 L 147.310 391 171.155 391 C 193.459 391, 195 390.884, 195 389.198 C 195 384.568, 185.832 327.221, 184.759 325.138 C 184.090 323.839, 163.058 306.768, 138.021 287.201 C 112.985 267.634, 90.503 250.022, 88.061 248.062 C 85.620 246.103, 83.889 245.212, 84.215 246.081 M 380.389 283.578 C 354.050 304.246, 331.560 322.134, 330.412 323.328 C 328.640 325.171, 327.617 330.265, 323.650 357 C 321.080 374.325, 318.982 389.063, 318.988 389.750 C 318.997 390.715, 324.451 391, 342.891 391 L 366.782 391 394.535 326.250 C 409.799 290.637, 423.781 258.012, 425.606 253.750 C 427.431 249.488, 428.779 246, 428.602 246 C 428.424 246, 406.729 262.910, 380.389 283.578 M 208.718 272.586 C 209.073 274.739, 213.232 302.150, 217.961 333.500 L 226.558 390.500 257.029 390.763 L 287.500 391.026 296.633 330.263 C 301.656 296.843, 305.649 269.368, 305.506 269.207 C 305.363 269.045, 297.766 280.700, 288.623 295.105 L 272 321.297 271.996 335.899 C 271.993 348.704, 271.748 350.901, 270.005 353.759 C 264.116 363.418, 249.884 363.418, 243.995 353.759 C 242.250 350.897, 242.007 348.704, 242.004 335.756 L 242 321.013 225.900 295.756 C 217.044 281.865, 209.411 270.089, 208.936 269.586 C 208.449 269.071, 208.354 270.378, 208.718 272.586 M 168.325 451.500 L 178.480 482 193.740 482 C 202.133 482, 209 481.637, 209 481.194 C 209 480.289, 201.375 429.312, 200.482 424.250 L 199.909 421 179.040 421 L 158.171 421 168.325 451.500 M 231.558 423.750 C 232.532 429.023, 240 479.398, 240 480.694 C 240 481.717, 243.677 482, 257 482 C 267.809 482, 274 481.631, 274 480.987 C 274 479.724, 281.851 427.509, 282.606 423.750 L 283.159 421 257.104 421 L 231.050 421 231.558 423.750 M 314 421.285 C 314 421.442, 311.975 434.964, 309.500 451.334 C 307.025 467.705, 305 481.302, 305 481.549 C 305 481.797, 311.962 482, 320.471 482 L 335.941 482 345.598 452.250 C 350.909 435.887, 355.449 422.163, 355.686 421.750 C 355.924 421.337, 346.641 421, 335.059 421 C 323.477 421, 314 421.128, 314 421.285" stroke="none" fill="#2685f7" fill-rule="evenodd"/></svg>