<svg xmlns="http://www.w3.org/2000/svg" width="512" height="512" viewBox="0 0 512 512" version="1.1"><path d="" stroke="none" fill="#080404" fill-rule="evenodd"/><path d="M 248.241 1.995 C 246.448 3.088, 244.088 5.448, 242.995 7.241 C 241.151 10.265, 241.007 12.318, 241.004 35.750 L 241 61 231.250 61.004 C 220.207 61.008, 216.511 62.473, 212.995 68.241 C 211.153 71.261, 211.007 73.317, 211.004 96.250 L 211 121 201.250 121.004 C 190.207 121.008, 186.511 122.473, 182.995 128.241 C 181.153 131.261, 181.007 133.317, 181.004 156.250 L 181 181 171.250 181.004 C 160.207 181.008, 156.511 182.473, 152.995 188.241 C 151.062 191.411, 151.007 193.414, 151.004 261.250 L 151 331 141.250 331.004 C 130.207 331.008, 126.511 332.473, 122.995 338.241 C 121.100 341.348, 121.007 343.350, 121.004 381.250 L 121 421 111.250 421.004 C 100.207 421.008, 96.511 422.473, 92.995 428.241 C 91.151 431.265, 91.007 433.318, 91.004 456.750 L 91 482 50.750 482.004 C 12.351 482.007, 10.350 482.099, 7.241 483.995 C -2.418 489.884, -2.418 504.116, 7.241 510.005 C 10.470 511.974, 12.790 511.993, 256 511.993 C 498.071 511.993, 501.545 511.965, 504.715 510.033 C 509.545 507.087, 513 500.966, 513 495.353 C 513 492.776, 512.702 490.965, 512.337 491.330 C 511.972 491.694, 510.851 490.640, 509.846 488.987 C 508.841 487.334, 506.552 485.088, 504.759 483.995 C 501.650 482.099, 499.649 482.007, 461.250 482.004 L 421 482 420.996 456.750 C 420.993 433.318, 420.849 431.265, 419.005 428.241 C 415.489 422.473, 411.793 421.008, 400.750 421.004 L 391 421 390.996 381.250 C 390.993 343.350, 390.900 341.348, 389.005 338.241 C 385.489 332.473, 381.793 331.008, 370.750 331.004 L 361 331 360.996 261.250 C 360.993 193.414, 360.938 191.411, 359.005 188.241 C 355.489 182.473, 351.793 181.008, 340.750 181.004 L 331 181 330.996 156.250 C 330.993 133.317, 330.847 131.261, 329.005 128.241 C 325.489 122.473, 321.793 121.008, 310.750 121.004 L 301 121 300.996 96.250 C 300.993 73.317, 300.847 71.261, 299.005 68.241 C 295.489 62.473, 291.793 61.008, 280.750 61.004 L 271 61 270.996 35.750 C 270.993 12.318, 270.849 10.265, 269.005 7.241 C 264.764 0.285, 255.065 -2.166, 248.241 1.995 M 241 106 L 241 121 256 121 L 271 121 271 106 L 271 91 256 91 L 241 91 241 106 M 211 166 L 211 181 256 181 L 301 181 301 166 L 301 151 256 151 L 211 151 211 166 M 181 271 L 181 331 196 331 L 211 331 211 271 L 211 211 196 211 L 181 211 181 271 M 241 286 L 241 361 256 361 L 271 361 271 286 L 271 211 256 211 L 241 211 241 286 M 301 271 L 301 331 316 331 L 331 331 331 271 L 331 211 316 211 L 301 211 301 271 M 151 391 L 151 421 181 421 L 211 421 211 391 L 211 361 181 361 L 151 361 151 391 M 301 391 L 301 421 331 421 L 361 421 361 391 L 361 361 331 361 L 301 361 301 391 M 241 406 L 241 421 256 421 L 271 421 271 406 L 271 391 256 391 L 241 391 241 406 M 121 466.500 L 121 482 256 482 L 391 482 391 466.500 L 391 451 256 451 L 121 451 121 466.500 M 0.300 497 C 0.300 500.025, 0.487 501.262, 0.716 499.750 C 0.945 498.238, 0.945 495.762, 0.716 494.250 C 0.487 492.738, 0.300 493.975, 0.300 497" stroke="none" fill="#f220a0" fill-rule="evenodd"/></svg>