<svg xmlns="http://www.w3.org/2000/svg" width="512" height="512" viewBox="0 0 512 512" version="1.1"><path d="" stroke="none" fill="#080404" fill-rule="evenodd"/><path d="M 248.241 1.995 C 242.894 5.254, 241.247 9.070, 240.521 19.877 C 238.006 57.288, 226.429 82.050, 197.555 111.777 L 183.254 126.500 169.623 153.750 L 155.993 181 143.746 181.004 C 129.979 181.008, 126.709 182.148, 122.995 188.241 C 121.040 191.447, 121.007 193.530, 121.007 316.500 C 121.007 439.470, 121.040 441.553, 122.995 444.759 C 126.511 450.527, 130.207 451.992, 141.250 451.996 L 151 452 151.004 476.750 C 151.007 499.683, 151.153 501.739, 152.995 504.759 C 154.088 506.552, 156.448 508.912, 158.241 510.005 C 161.432 511.951, 163.464 511.993, 256 511.993 C 348.536 511.993, 350.568 511.951, 353.759 510.005 C 355.552 508.912, 357.912 506.552, 359.005 504.759 C 360.847 501.739, 360.993 499.683, 360.996 476.750 L 361 452 370.750 451.996 C 381.793 451.992, 385.489 450.527, 389.005 444.759 C 390.960 441.553, 390.993 439.470, 390.993 316.500 C 390.993 193.530, 390.960 191.447, 389.005 188.241 C 385.291 182.148, 382.021 181.008, 368.254 181.004 L 356.007 181 342.388 153.750 L 328.770 126.500 315.635 112.993 C 300.968 97.910, 296.261 92.082, 289.026 80.043 C 279.514 64.217, 273.609 44.748, 271.876 23.500 C 270.705 9.142, 269.527 5.946, 264.048 2.253 C 259.740 -0.650, 252.765 -0.764, 248.241 1.995 M 253.009 89.750 C 249.500 96.450, 237.628 114.128, 235.108 116.405 C 233.949 117.453, 233 118.690, 233 119.155 C 233 119.620, 243.350 120, 256 120 C 268.650 120, 279 119.620, 279 119.155 C 279 118.690, 278.051 117.453, 276.892 116.405 C 274.372 114.128, 262.500 96.450, 258.991 89.750 C 257.623 87.138, 256.277 85, 256 85 C 255.723 85, 254.377 87.138, 253.009 89.750 M 198.506 164.988 C 194.378 173.231, 191 180.206, 191 180.488 C 191 180.769, 220.250 181, 256 181 C 291.750 181, 321 180.769, 321 180.488 C 321 180.206, 317.622 173.231, 313.494 164.988 L 305.987 150 256 150 L 206.013 150 198.506 164.988 M 151 316.500 L 151 422 256 422 L 361 422 361 316.500 L 361 211 256 211 L 151 211 151 316.500 M 237.268 243.005 C 214.559 248.956, 195.628 265.313, 186.586 286.796 C 182.590 296.289, 181.031 304.489, 181.015 316.090 C 180.974 345.048, 196.816 370.585, 222.825 383.487 C 238.123 391.075, 257.957 393.231, 274.220 389.072 C 300.904 382.247, 322.243 360.921, 329.060 334.265 C 331.689 323.985, 331.689 308.015, 329.060 297.735 C 322.224 271.006, 301.097 249.802, 274.532 243.008 C 264.105 240.341, 247.438 240.340, 237.268 243.005 M 248.677 272.106 C 230.784 274.688, 214.681 291.074, 212.095 309.333 C 207.886 339.052, 232.948 364.114, 262.667 359.905 C 277.973 357.737, 292.471 345.992, 297.705 331.519 C 306.153 308.157, 293.786 281.998, 270.500 273.974 C 264.025 271.743, 255.974 271.054, 248.677 272.106 M 181 467 L 181 482 256 482 L 331 482 331 467 L 331 452 256 452 L 181 452 181 467" stroke="none" fill="#9034FF" fill-rule="evenodd"/></svg>