<svg xmlns="http://www.w3.org/2000/svg" width="512" height="512" viewBox="0 0 512 512" version="1.1"><path d="" stroke="none" fill="#080404" fill-rule="evenodd"/><path d="M 246.453 1.326 C 239.864 3.865, 235.983 7.255, 231.589 14.311 C 227.171 21.404, 218.516 39.152, 214.115 50.142 L 211.856 55.784 200.982 56.156 C 189.246 56.558, 187.005 57.437, 182.562 63.383 C 180.614 65.989, 180.484 67.675, 180.204 93.805 C 179.945 117.911, 180.122 121.943, 181.575 125.167 C 182.779 127.837, 186.526 131.382, 195.031 137.901 L 206.818 146.934 206.365 150.717 C 205.886 154.715, 182 419.908, 182 421.229 C 182 421.653, 163.887 422.002, 141.750 422.004 C 103.351 422.007, 101.350 422.099, 98.241 423.995 C 88.582 429.884, 88.582 444.116, 98.241 450.005 C 101.083 451.738, 103.294 451.993, 115.513 451.996 L 129.525 452 144.500 467 L 159.475 482 145.487 482.004 C 133.294 482.007, 131.082 482.262, 128.241 483.995 C 118.582 489.884, 118.582 504.116, 128.241 510.005 C 131.447 511.960, 133.529 511.993, 256 511.993 C 378.471 511.993, 380.553 511.960, 383.759 510.005 C 393.418 504.116, 393.418 489.884, 383.759 483.995 C 380.918 482.262, 378.706 482.007, 366.513 482.004 L 352.525 482 367.500 467 L 382.475 452 396.487 451.996 C 408.706 451.993, 410.917 451.738, 413.759 450.005 C 423.418 444.116, 423.418 429.884, 413.759 423.995 C 410.650 422.099, 408.649 422.007, 370.250 422.004 C 348.113 422.002, 330 421.653, 330 421.229 C 330 419.908, 306.114 154.715, 305.635 150.717 L 305.182 146.934 316.969 137.901 C 325.474 131.382, 329.221 127.837, 330.425 125.167 C 331.878 121.943, 332.055 117.911, 331.796 93.805 C 331.516 67.675, 331.386 65.989, 329.438 63.383 C 324.995 57.437, 322.754 56.558, 311.018 56.156 L 300.144 55.784 297.885 50.142 C 293.503 39.198, 284.836 21.416, 280.464 14.396 C 273.974 3.975, 266.958 -0.066, 255.601 0.076 C 252.245 0.118, 248.129 0.680, 246.453 1.326 M 250.468 44.250 C 247.810 49.888, 243.260 60.294, 240.358 67.377 C 237.455 74.459, 234.275 81.158, 233.290 82.265 C 230.415 85.495, 225.565 87, 218.032 87 L 211 87 211.043 99.250 L 211.085 111.500 215.950 115.250 L 220.815 119 256 119 L 291.185 119 296.050 115.250 L 300.915 111.500 300.957 99.250 L 301 87 293.968 87 C 286.435 87, 281.585 85.495, 278.710 82.265 C 277.725 81.158, 274.545 74.459, 271.642 67.377 C 265.127 51.478, 256.936 34, 256 34 C 255.616 34, 253.127 38.612, 250.468 44.250 M 225.572 280.750 C 219.082 352.663, 213.536 413.863, 213.246 416.750 L 212.720 422 256 422 L 299.280 422 298.754 416.750 C 298.464 413.863, 292.918 352.663, 286.428 280.750 L 274.629 150 256 150 L 237.371 150 225.572 280.750 M 187.500 467 L 202.475 482 256 482 L 309.525 482 324.500 467 L 339.475 452 256 452 L 172.525 452 187.500 467" stroke="none" fill="#4246d4" fill-rule="evenodd"/></svg>