<svg xmlns="http://www.w3.org/2000/svg" width="512" height="512" viewBox="0 0 512 512" version="1.1"><path d="" stroke="none" fill="#080404" fill-rule="evenodd"/><path d="M 220.500 1.425 C 183.547 11.155, 161.762 20.187, 139.910 34.837 C 115.262 51.360, 97.164 69.605, 80.726 94.500 C 77.457 99.450, 64.932 123.186, 52.891 147.246 C 29.140 194.708, 28.750 195.797, 32.995 202.759 C 36.204 208.023, 39.878 209.589, 51.878 210.811 C 64.257 212.072, 75.455 215.707, 85.261 221.649 C 93.561 226.679, 104.620 237.876, 109.747 246.440 L 113.902 253.380 107.701 257.426 C 99.651 262.678, 87.286 274.520, 81.006 282.992 C 75.387 290.571, 69.126 302.597, 66.163 311.500 C 61.332 326.018, 61 330.248, 61 377.362 L 61 421.808 47.250 422.154 C 33.839 422.491, 33.313 422.589, 25.935 426.113 C 15.957 430.878, 8.878 437.957, 4.113 447.935 L 0.500 455.500 0.217 478.500 C -0.050 500.125, 0.054 501.695, 1.957 504.759 C 3.071 506.552, 5.448 508.912, 7.241 510.005 C 10.470 511.974, 12.790 511.993, 256 511.993 C 498.071 511.993, 501.545 511.965, 504.715 510.033 C 506.483 508.954, 509.070 506.265, 510.465 504.056 C 512.976 500.078, 513 499.836, 513 478.461 C 513 464.330, 512.655 457.095, 512 457.500 C 511.450 457.840, 511 457.291, 511 456.281 C 511 455.270, 509.478 451.269, 507.619 447.388 C 503.098 437.955, 495.822 430.772, 486.065 426.113 C 478.687 422.589, 478.161 422.491, 464.750 422.154 L 451 421.808 451 377.362 C 451 330.248, 450.668 326.018, 445.837 311.500 C 442.874 302.597, 436.613 290.571, 430.994 282.992 C 424.756 274.578, 411.754 262.090, 404.037 257.102 L 398.148 253.296 402.278 246.398 C 414.285 226.342, 435.699 213.280, 460.720 210.749 C 472.080 209.599, 475.835 207.958, 479.005 202.759 C 483.250 195.797, 482.860 194.708, 459.109 147.246 C 447.068 123.186, 434.543 99.450, 431.274 94.500 C 409.747 61.898, 382.866 38.208, 347.975 21.088 C 335.426 14.931, 329.148 12.628, 301 3.857 L 290.500 0.586 258 0.347 C 233.671 0.168, 224.243 0.439, 220.500 1.425 M 229.707 31.091 C 211.321 33.781, 196.031 49.313, 192.882 68.500 C 191.778 75.224, 192.037 77.335, 199.445 122 C 204.192 150.619, 207.838 169.846, 208.927 172 C 209.899 173.925, 212.226 176.400, 214.098 177.500 C 217.341 179.406, 219.301 179.500, 256 179.500 C 292.699 179.500, 294.659 179.406, 297.902 177.500 C 299.774 176.400, 302.101 173.925, 303.073 172 C 304.165 169.840, 307.785 150.693, 312.527 122.004 C 319.898 77.407, 320.165 75.224, 319.063 68.551 C 315.523 47.114, 299.983 32.814, 277.750 30.533 L 271 29.841 270.996 54.670 C 270.993 77.683, 270.847 79.739, 269.005 82.759 C 263.116 92.418, 248.884 92.418, 242.995 82.759 C 241.153 79.739, 241.007 77.683, 241.004 54.750 L 241 30 238.250 30.122 C 236.738 30.189, 232.893 30.625, 229.707 31.091 M 155.921 61.120 C 132.535 77.224, 114.847 96.344, 100.865 120.634 C 96.092 128.925, 71 178.377, 71 179.492 C 71 179.772, 86.637 180.002, 105.750 180.004 C 138.661 180.007, 140.672 180.113, 143.759 181.995 C 153.418 187.884, 153.418 202.116, 143.759 208.005 C 141.063 209.649, 138.713 209.993, 130.161 209.996 L 119.823 210 125.689 216.402 C 130.491 221.642, 134.974 228.379, 142.094 241.056 C 142.510 241.797, 144.602 241.784, 149.094 241.014 C 156.259 239.784, 362.591 240.096, 367 241.343 C 369.310 241.996, 369.832 241.445, 373.859 234.095 C 376.256 229.720, 381.042 222.621, 384.495 218.320 L 390.773 210.500 380.590 210 C 373.098 209.632, 369.680 209.023, 367.656 207.696 C 358.547 201.722, 358.866 187.710, 368.241 181.995 C 371.328 180.113, 373.339 180.007, 406.250 180.004 C 425.363 180.002, 441 179.757, 441 179.461 C 441 178.117, 413.595 124.590, 409.021 117 C 394.809 93.418, 374.371 72.582, 350.548 57.388 C 347.629 55.526, 347.605 55.527, 348.367 57.503 C 350.007 61.753, 350.887 75.221, 350.017 82.750 C 348.183 98.621, 334.888 175.368, 333.083 180.505 C 329.254 191.397, 320.311 201.062, 309.180 206.335 L 302.500 209.500 256 209.500 L 209.500 209.500 202.820 206.335 C 191.688 201.061, 182.746 191.397, 178.916 180.502 C 177.885 177.569, 173.607 154.768, 169.409 129.834 C 163.138 92.581, 161.787 82.628, 161.832 74 C 161.862 68.225, 162.355 61.955, 162.926 60.066 C 163.498 58.178, 163.826 56.492, 163.654 56.321 C 163.483 56.150, 160.003 58.309, 155.921 61.120 M 156.500 271.091 C 140.795 272.955, 125.362 280.615, 113.618 292.373 L 106.500 299.500 181.250 299.756 C 222.363 299.897, 289.638 299.897, 330.750 299.756 L 405.500 299.500 398.382 292.373 C 386.194 280.170, 371.253 272.968, 354.034 270.994 C 343.660 269.806, 166.597 269.892, 156.500 271.091 M 92.542 331.750 C 92.172 332.712, 91.605 339.688, 91.281 347.250 L 90.693 361 256 361 L 421.307 361 420.719 347.250 C 420.395 339.688, 419.828 332.712, 419.458 331.750 C 418.822 330.093, 410.112 330, 256 330 C 101.888 330, 93.178 330.093, 92.542 331.750 M 91 406.443 L 91 421.886 119.250 422.193 L 147.500 422.500 155.065 426.113 C 165.043 430.878, 172.122 437.957, 176.887 447.935 C 180.385 455.260, 180.511 455.921, 180.848 468.750 L 181.196 482 196.058 482 L 210.921 482 211.210 438.250 C 211.370 414.188, 211.886 393.712, 212.357 392.750 C 213.168 391.093, 209.964 391, 152.107 391 L 91 391 91 406.443 M 252.170 391.687 C 248.741 392.383, 242.416 399.170, 241.656 402.969 C 241.295 404.773, 241 423.294, 241 444.125 L 241 482 256.043 482 L 271.085 482 270.793 441.750 C 270.503 401.979, 270.474 401.463, 268.276 398.382 C 264.403 392.952, 258.342 390.433, 252.170 391.687 M 299.643 392.750 C 300.114 393.712, 300.630 414.188, 300.790 438.250 L 301.079 482 315.942 482 L 330.804 482 331.152 468.750 C 331.489 455.921, 331.615 455.260, 335.113 447.935 C 339.878 437.957, 346.957 430.878, 356.935 426.113 L 364.500 422.500 392.750 422.193 L 421 421.886 421 406.443 L 421 391 359.893 391 C 302.036 391, 298.832 391.093, 299.643 392.750 M 41.170 452.698 C 37.749 453.376, 31.417 460.164, 30.656 463.969 C 30.295 465.773, 30 470.569, 30 474.625 L 30 482 90.616 482 L 151.233 482 150.825 472.250 C 150.378 461.545, 149.215 458.717, 143.618 454.724 C 140.505 452.503, 140.427 452.500, 92 452.368 C 65.325 452.296, 42.451 452.444, 41.170 452.698 M 372.170 452.698 C 368.749 453.376, 362.417 460.164, 361.656 463.969 C 361.295 465.773, 361 470.569, 361 474.625 L 361 482 421.616 482 L 482.233 482 481.825 472.250 C 481.378 461.545, 480.215 458.717, 474.618 454.724 C 471.505 452.503, 471.427 452.500, 423 452.368 C 396.325 452.296, 373.451 452.444, 372.170 452.698 M 0.428 480 C 0.428 492.375, 0.571 497.438, 0.747 491.250 C 0.922 485.063, 0.922 474.938, 0.747 468.750 C 0.571 462.563, 0.428 467.625, 0.428 480" stroke="none" fill="#e68416" fill-rule="evenodd"/></svg>