<svg xmlns="http://www.w3.org/2000/svg" width="512" height="512" viewBox="0 0 512 512" version="1.1"><path d="" stroke="none" fill="#4246d4" fill-rule="evenodd"/><path d="M 241 1.524 C 221.731 6.814, 205.272 22.083, 198.883 40.597 C 196.835 46.530, 196.493 49.442, 196.450 61.321 L 196.399 75.141 165.991 92.071 C 149.266 101.382, 135.421 109, 135.224 109 C 135.026 109, 132.404 106.995, 129.395 104.544 C 117.282 94.677, 104.211 90.486, 88.012 91.275 C 74.997 91.909, 67.449 94.391, 57.073 101.448 C 44.819 109.783, 36.085 122.363, 32.398 136.988 C 30.144 145.928, 30.928 162.056, 34.048 170.936 C 40.721 189.930, 57.567 204.840, 77.973 209.812 L 85.446 211.634 90.775 243.567 C 95.655 272.810, 95.964 275.584, 94.441 276.500 C 76.768 287.128, 66.727 299.815, 62.398 316.988 C 59.975 326.599, 60.879 342.171, 64.415 351.747 L 67.091 358.994 33.545 425.954 C 5.062 482.809, 0.001 493.561, 0.004 497.207 C 0.008 502.405, 2.762 507.274, 7.241 510.005 C 10.378 511.918, 12.372 511.993, 60.602 511.996 L 110.704 512 114.048 509.747 C 120.797 505.199, 120.619 506.138, 126.032 446.351 C 128.764 416.183, 130.999 391.269, 130.999 390.987 C 131 390.704, 133.300 389.927, 136.111 389.259 C 143.636 387.472, 150.647 383.969, 158.261 378.193 L 165.022 373.063 180.511 381.649 L 196 390.234 196.024 394.867 C 196.037 397.415, 196.472 401.300, 196.991 403.500 C 197.788 406.878, 196.619 414.199, 189.467 450.616 C 184.810 474.330, 181.002 495.480, 181.004 497.616 C 181.008 502.392, 183.915 507.368, 188.241 510.005 C 191.404 511.934, 193.399 511.993, 256 511.993 C 318.601 511.993, 320.596 511.934, 323.759 510.005 C 328.085 507.368, 330.992 502.392, 330.996 497.616 C 330.998 495.480, 327.190 474.330, 322.533 450.616 C 315.381 414.199, 314.212 406.878, 315.009 403.500 C 315.528 401.300, 315.963 397.415, 315.976 394.867 L 316 390.234 331.489 381.649 L 346.978 373.063 353.739 378.193 C 361.353 383.969, 368.364 387.472, 375.889 389.259 C 378.700 389.927, 381 390.704, 381.001 390.987 C 381.001 391.269, 383.236 416.183, 385.968 446.351 C 391.381 506.138, 391.203 505.199, 397.952 509.747 L 401.296 512 451.398 511.996 C 499.396 511.993, 501.635 511.910, 504.715 510.033 C 509.545 507.087, 513 500.966, 513 495.353 C 513 492.776, 512.680 490.987, 512.288 491.378 C 511.897 491.770, 496.596 462.257, 478.287 425.795 L 444.998 359.500 447.749 351.500 C 450.177 344.440, 450.500 342.032, 450.500 331 C 450.500 320.467, 450.129 317.426, 448.143 311.674 C 443.562 298.407, 432.978 285.609, 420.750 278.551 C 418.137 277.044, 416.028 275.290, 416.062 274.655 C 416.096 274.020, 418.470 259.580, 421.337 242.567 L 426.550 211.635 434.025 209.813 C 454.433 204.840, 471.278 189.931, 477.952 170.936 C 481.072 162.056, 481.856 145.928, 479.602 136.988 C 475.915 122.363, 467.181 109.783, 454.927 101.448 C 444.551 94.391, 437.003 91.909, 423.988 91.275 C 407.698 90.481, 394.725 94.672, 382.408 104.704 C 377.987 108.306, 376.386 109.100, 375.121 108.321 C 374.229 107.771, 360.397 100.044, 344.383 91.149 L 315.265 74.976 315.758 63.738 C 316.323 50.851, 314.908 43.484, 309.892 33.193 C 303.430 19.934, 289.964 7.992, 275.858 3.012 C 267.507 0.063, 249.171 -0.720, 241 1.524 M 250.344 31.031 C 227.374 35.634, 218.756 63.894, 235.199 80.692 C 253.410 99.295, 285.310 86.132, 285.289 60.023 C 285.274 41.562, 268.254 27.441, 250.344 31.031 M 181.087 118.897 L 150.674 135.787 150.587 150.858 L 150.500 165.928 178.500 181.169 C 193.900 189.552, 207.682 197.081, 209.126 197.902 C 211.644 199.333, 211.951 199.228, 216.626 195.332 C 222.541 190.403, 231.008 185.603, 236.750 183.925 L 241 182.683 241 150.500 L 241 118.317 236.750 117.075 C 231.087 115.420, 222.563 110.616, 216.861 105.865 C 214.310 103.739, 212.060 102.002, 211.861 102.004 C 211.663 102.006, 197.814 109.608, 181.087 118.897 M 295.500 105.571 C 290.491 109.949, 280.830 115.436, 275.250 117.071 L 271 118.317 271 150.500 L 271 182.683 275.250 183.925 C 280.992 185.603, 289.459 190.403, 295.374 195.332 C 300.049 199.228, 300.356 199.333, 302.874 197.902 C 304.318 197.081, 318.100 189.552, 333.500 181.169 L 361.500 165.928 361.413 150.858 L 361.326 135.787 330.913 118.897 C 314.186 109.608, 300.275 102.023, 300 102.042 C 299.725 102.060, 297.700 103.648, 295.500 105.571 M 85.344 122.031 C 62.374 126.634, 53.756 154.894, 70.199 171.692 C 88.410 190.295, 120.310 177.132, 120.289 151.023 C 120.274 132.562, 103.254 118.441, 85.344 122.031 M 415.344 122.031 C 392.374 126.634, 383.756 154.894, 400.199 171.692 C 418.410 190.295, 450.310 177.132, 450.289 151.023 C 450.274 132.562, 433.254 118.441, 415.344 122.031 M 130.500 196.559 C 128.300 198.475, 124.138 201.416, 121.250 203.095 C 118.362 204.773, 116.028 206.676, 116.062 207.323 C 116.096 207.971, 118.470 222.420, 121.337 239.433 L 126.550 270.365 134.025 272.174 C 142.070 274.120, 154.814 280.032, 157.598 283.108 C 158.539 284.149, 159.978 285, 160.794 285 C 161.610 285, 170.559 279.522, 180.680 272.828 C 194.568 263.640, 198.933 260.269, 198.477 259.080 C 196.581 254.140, 195.796 246.333, 196.244 236.887 L 196.749 226.222 166.301 209.611 C 149.554 200.475, 135.548 193.017, 135.176 193.038 C 134.804 193.058, 132.700 194.643, 130.500 196.559 M 345.397 209.676 L 315.294 226.196 315.717 237.848 C 316.019 246.180, 315.716 251.065, 314.653 254.993 C 313.836 258.014, 313.488 260.714, 313.881 260.993 C 320.991 266.046, 350.317 285, 351.025 285 C 351.559 285, 354.185 283.427, 356.862 281.504 C 363.102 277.020, 369.131 274.377, 378.197 272.148 L 385.450 270.365 390.663 239.433 C 393.530 222.420, 395.904 207.980, 395.938 207.345 C 395.972 206.710, 393.863 204.952, 391.250 203.438 C 388.637 201.925, 384.413 198.957, 381.861 196.843 C 379.310 194.729, 376.835 193.035, 376.361 193.078 C 375.888 193.120, 361.954 200.590, 345.397 209.676 M 250.344 212.031 C 227.374 216.634, 218.756 244.894, 235.199 261.692 C 253.410 280.295, 285.310 267.132, 285.289 241.023 C 285.274 222.562, 268.254 208.441, 250.344 212.031 M 197.500 298.613 C 188.150 304.930, 179.973 310.413, 179.329 310.799 C 178.448 311.327, 178.525 312.860, 179.639 317 C 180.664 320.812, 181.024 326.171, 180.809 334.459 L 180.500 346.419 192.432 353.082 L 204.363 359.744 206.622 356.415 C 208.330 353.899, 210.396 345.511, 215.089 322.036 C 221.099 291.974, 221.239 290.922, 219.493 288.993 C 218.502 287.897, 216.972 287.029, 216.095 287.064 C 215.218 287.100, 206.850 292.297, 197.500 298.613 M 292.507 288.993 C 290.761 290.922, 290.901 291.974, 296.911 322.036 C 301.604 345.511, 303.670 353.899, 305.378 356.415 L 307.637 359.744 319.568 353.082 L 331.500 346.419 331.191 334.459 C 330.976 326.133, 331.334 320.829, 332.370 317 C 333.189 313.975, 333.553 311.240, 333.179 310.923 C 329.870 308.110, 296.827 287, 295.734 287 C 294.951 287, 293.498 287.897, 292.507 288.993 M 115.344 302.031 C 92.374 306.634, 83.756 334.894, 100.199 351.692 C 118.410 370.295, 150.310 357.132, 150.289 331.023 C 150.274 312.562, 133.254 298.441, 115.344 302.031 M 250.544 302.197 C 249.920 304.071, 245 329.110, 245 330.410 C 245 331.131, 248.726 331.500, 256 331.500 C 265.132 331.500, 266.992 331.245, 266.953 330 C 266.927 329.175, 265.671 322.425, 264.163 315 L 261.420 301.500 256.199 301.197 C 252.579 300.988, 250.845 301.294, 250.544 302.197 M 385.344 302.031 C 362.374 306.634, 353.756 334.894, 370.199 351.692 C 388.410 370.295, 420.310 357.132, 420.289 331.023 C 420.274 312.562, 403.254 298.441, 385.344 302.031 M 250.344 362.031 C 227.374 366.634, 218.756 394.894, 235.199 411.692 C 253.410 430.295, 285.310 417.132, 285.289 391.023 C 285.274 372.562, 268.254 358.441, 250.344 362.031 M 80.239 401.503 C 75.158 411.684, 71 420.249, 71 420.536 C 71 420.823, 76.963 420.932, 84.250 420.779 L 97.500 420.500 98.676 408 C 100.650 387.006, 100.775 387.832, 95.280 385.500 C 92.688 384.400, 90.322 383.386, 90.023 383.246 C 89.723 383.107, 85.321 391.323, 80.239 401.503 M 416.770 385.339 C 411.252 387.860, 411.362 387.135, 413.324 408 L 414.500 420.500 427.750 420.779 C 435.038 420.932, 441 420.823, 441 420.536 C 441 419.475, 422.507 383.003, 422.013 383.089 C 421.731 383.138, 419.372 384.150, 416.770 385.339 M 219.138 459.250 C 217.337 468.738, 215.616 477.738, 215.315 479.250 L 214.767 482 255.883 482 C 278.498 482, 297 481.732, 297 481.403 C 297 480.319, 289.690 442.507, 289.412 442.153 C 289.262 441.962, 286.296 443.190, 282.820 444.881 C 273.993 449.177, 266.002 451, 256 451 C 246.064 451, 238.012 449.179, 229.377 444.978 C 226.010 443.340, 223.065 442, 222.834 442 C 222.602 442, 220.939 449.762, 219.138 459.250 M 47.739 466.500 L 40.008 482 66.004 482 C 86.932 482, 92 481.741, 92 480.674 C 92 478.889, 93.900 458.330, 94.442 454.250 L 94.874 451 75.172 451 L 55.470 451 47.739 466.500 M 417.558 454.250 C 418.100 458.330, 420 478.889, 420 480.674 C 420 481.741, 425.068 482, 445.996 482 L 471.992 482 464.261 466.500 L 456.530 451 436.828 451 L 417.126 451 417.558 454.250 M 0.300 497 C 0.300 500.025, 0.487 501.262, 0.716 499.750 C 0.945 498.238, 0.945 495.762, 0.716 494.250 C 0.487 492.738, 0.300 493.975, 0.300 497" stroke="none" fill="#4246d4" fill-rule="evenodd"/></svg>