<?xml version="1.0" standalone="no"?>
<!DOCTYPE svg PUBLIC "-//W3C//DTD SVG 20010904//EN"
 "http://www.w3.org/TR/2001/REC-SVG-20010904/DTD/svg10.dtd">
<svg version="1.0" xmlns="http://www.w3.org/2000/svg"
 width="512.000000pt" height="512.000000pt" viewBox="0 0 512.000000 512.000000"
 preserveAspectRatio="xMidYMid meet">

<g transform="translate(0.000000,512.000000) scale(0.100000,-0.100000)"
fill="#9034FF" stroke="none">
<path d="M78 5099 c-43 -22 -78 -81 -78 -129 0 -50 35 -107 80 -130 31 -16 59
-20 130 -20 l90 0 0 -455 0 -455 -90 0 c-112 0 -159 -20 -190 -80 -25 -50 -25
-90 0 -140 31 -60 78 -80 190 -80 l90 0 0 -150 0 -150 -90 0 c-112 0 -159 -20
-190 -80 -25 -50 -25 -90 0 -140 31 -60 78 -80 190 -80 l90 0 0 -600 0 -600
-90 0 c-112 0 -159 -20 -190 -80 -25 -50 -25 -90 0 -140 31 -60 78 -80 190
-80 l90 0 0 -605 0 -605 -90 0 c-71 0 -99 -4 -130 -20 -45 -23 -80 -80 -80
-130 0 -50 35 -107 80 -130 39 -20 53 -20 2480 -20 2427 0 2441 0 2480 20 45
23 80 80 80 130 0 50 -35 107 -80 130 -31 16 -59 20 -130 20 l-90 0 0 605 0
605 90 0 c112 0 159 20 190 80 25 50 25 90 0 140 -31 60 -78 80 -190 80 l-90
0 0 600 0 600 90 0 c112 0 159 20 190 80 25 50 25 90 0 140 -31 60 -78 80
-190 80 l-90 0 0 150 0 150 90 0 c112 0 159 20 190 80 25 50 25 90 0 140 -31
60 -78 80 -190 80 l-90 0 0 455 0 455 90 0 c71 0 99 4 130 20 45 23 80 80 80
130 0 50 -35 107 -80 130 -38 20 -57 20 -975 20 -918 0 -937 0 -975 -20 -45
-23 -80 -80 -80 -130 0 -50 35 -107 80 -130 31 -16 59 -20 130 -20 l90 0 0
-455 0 -455 -750 0 -750 0 0 455 0 455 90 0 c71 0 99 4 130 20 45 23 80 80 80
130 0 50 -35 107 -80 130 -38 20 -56 20 -977 20 -914 -1 -939 -1 -975 -21z
m1432 -734 l0 -455 -150 0 -150 0 0 245 c0 227 -2 249 -20 285 -23 45 -80 80
-130 80 -50 0 -107 -35 -130 -80 -18 -36 -20 -58 -20 -285 l0 -245 -155 0
-155 0 0 455 0 455 455 0 455 0 0 -455z m3010 0 l0 -455 -155 0 -155 0 0 245
c0 227 -2 249 -20 285 -23 45 -80 80 -130 80 -50 0 -107 -35 -130 -80 -18 -36
-20 -58 -20 -285 l0 -245 -150 0 -150 0 0 455 0 455 455 0 455 0 0 -455z
m-3610 -905 l0 -150 -155 0 -155 0 0 150 0 150 155 0 155 0 0 -150z m600 0 l0
-150 -150 0 -150 0 0 150 0 150 150 0 150 0 0 -150z m600 0 l0 -150 -150 0
-150 0 0 150 0 150 150 0 150 0 0 -150z m600 0 l0 -150 -150 0 -150 0 0 150 0
150 150 0 150 0 0 -150z m600 0 l0 -150 -150 0 -150 0 0 150 0 150 150 0 150
0 0 -150z m600 0 l0 -150 -150 0 -150 0 0 150 0 150 150 0 150 0 0 -150z m610
0 l0 -150 -155 0 -155 0 0 150 0 150 155 0 155 0 0 -150z m0 -1050 l0 -600
-95 0 c-117 0 -164 -19 -195 -80 -25 -50 -25 -90 0 -140 31 -61 78 -80 195
-80 l95 0 0 -605 0 -605 -155 0 -155 0 0 289 c0 306 -8 381 -50 493 -32 85
-106 192 -205 296 -167 176 -223 176 -390 0 -99 -104 -173 -211 -205 -296 -42
-112 -50 -187 -50 -493 l0 -289 -150 0 -150 0 0 289 c0 306 -8 381 -50 493
-32 85 -106 192 -205 296 -167 176 -223 176 -390 0 -99 -104 -173 -211 -205
-296 -42 -112 -50 -187 -50 -493 l0 -289 -150 0 -150 0 0 289 c0 306 -8 381
-50 493 -32 85 -106 192 -205 296 -167 176 -223 176 -390 0 -99 -104 -173
-211 -205 -296 -42 -112 -50 -187 -50 -493 l0 -289 -155 0 -155 0 0 605 0 605
95 0 c117 0 164 19 195 80 25 50 25 90 0 140 -31 61 -78 80 -195 80 l-95 0 0
600 0 600 1960 0 1960 0 0 -600z m-3122 -1305 c46 -52 79 -114 96 -180 13 -47
16 -119 16 -342 l0 -283 -150 0 -150 0 0 283 c0 307 7 361 56 445 28 48 82
112 94 112 4 0 22 -16 38 -35z m1200 0 c46 -52 79 -114 96 -180 13 -47 16
-119 16 -342 l0 -283 -150 0 -150 0 0 283 c0 307 7 361 56 445 28 48 82 112
94 112 4 0 22 -16 38 -35z m1200 0 c46 -52 79 -114 96 -180 13 -47 16 -119 16
-342 l0 -283 -150 0 -150 0 0 283 c0 307 7 361 56 445 28 48 82 112 94 112 4
0 22 -16 38 -35z"/>
<path d="M1255 2696 c-84 -21 -147 -57 -211 -121 -65 -65 -105 -136 -123 -223
-6 -29 -11 -136 -11 -238 0 -215 9 -248 80 -284 37 -19 58 -20 370 -20 312 0
333 1 370 20 71 36 80 69 80 284 0 102 -5 209 -11 238 -19 86 -59 158 -124
224 -112 113 -269 158 -420 120z m175 -306 c60 -31 80 -78 80 -190 l0 -90
-150 0 -150 0 0 93 c1 109 17 147 76 183 48 29 92 30 144 4z"/>
<path d="M2455 2696 c-84 -21 -147 -57 -211 -121 -177 -176 -177 -453 1 -630
258 -259 695 -118 757 244 24 141 -22 281 -127 387 -112 113 -269 158 -420
120z m175 -306 c45 -23 80 -80 80 -130 0 -76 -74 -150 -151 -150 -46 0 -108
39 -130 82 -37 72 -14 151 57 194 48 29 92 30 144 4z"/>
<path d="M3655 2696 c-84 -21 -147 -57 -211 -121 -65 -65 -105 -136 -123 -223
-6 -29 -11 -136 -11 -238 0 -215 9 -248 80 -284 37 -19 58 -20 370 -20 312 0
333 1 370 20 71 36 80 69 80 284 0 102 -5 209 -11 238 -19 86 -59 158 -124
224 -112 113 -269 158 -420 120z m175 -306 c60 -31 80 -78 80 -190 l0 -90
-150 0 -150 0 0 93 c1 109 17 147 76 183 48 29 92 30 144 4z"/>
</g>
</svg>
