<?xml version="1.0" standalone="no"?>
<!DOCTYPE svg PUBLIC "-//W3C//DTD SVG 20010904//EN"
 "http://www.w3.org/TR/2001/REC-SVG-20010904/DTD/svg10.dtd">
<svg version="1.0" xmlns="http://www.w3.org/2000/svg"
 width="512.000000pt" height="512.000000pt" viewBox="0 0 512.000000 512.000000"
 preserveAspectRatio="xMidYMid meet">

<g transform="translate(0.000000,512.000000) scale(0.100000,-0.100000)"
fill="#e68416" stroke="none">
<path d="M2367 5105 c-172 -28 -395 -119 -554 -227 -707 -477 -1251 -1629
-1433 -3038 -32 -255 -69 -733 -70 -912 l0 -28 -95 0 c-117 0 -164 -19 -195
-80 -19 -37 -20 -58 -20 -370 0 -312 1 -333 20 -370 13 -26 34 -47 60 -60 39
-20 53 -20 2480 -20 2427 0 2441 0 2480 20 26 13 47 34 60 60 19 37 20 58 20
370 0 312 -1 333 -20 370 -31 61 -78 80 -194 80 l-94 0 -6 128 c-27 544 -65
882 -147 1297 -210 1073 -631 1941 -1166 2410 -211 185 -447 308 -693 361
-104 22 -323 27 -433 9z m423 -315 c230 -57 485 -229 689 -465 486 -563 841
-1507 970 -2585 30 -243 60 -656 61 -817 l0 -23 -234 0 -234 0 -6 62 c-3 35
-13 151 -21 258 -69 851 -237 1672 -462 2250 -66 170 -202 440 -281 560 -177
266 -360 417 -570 471 -301 77 -600 -88 -854 -471 -80 -120 -216 -391 -281
-560 -225 -578 -393 -1399 -462 -2250 -8 -107 -18 -223 -21 -257 l-6 -63 -235
0 -235 0 7 133 c28 597 87 1044 195 1492 104 432 216 753 384 1100 268 552
574 910 931 1087 97 48 146 66 250 88 116 26 291 21 415 -10z m-82 -610 c131
-64 290 -252 417 -493 240 -454 435 -1176 539 -1992 22 -170 51 -472 71 -727
l5 -68 -1180 0 -1180 0 5 68 c48 605 93 963 176 1377 158 790 404 1406 676
1696 165 175 309 217 471 139z m-1483 -3609 c152 -42 322 -139 414 -235 l35
-36 -687 0 -687 0 0 151 0 150 423 -3 c401 -4 426 -5 502 -27z m2022 -43 c-38
-40 -94 -107 -124 -150 l-55 -78 -508 0 -509 0 -40 58 c-47 69 -130 165 -179
209 l-37 32 761 1 761 0 -70 -72z m1573 -78 l0 -150 -687 0 -688 1 65 60 c127
119 306 202 500 232 14 3 202 5 418 6 l392 1 0 -150z"/>
</g>
</svg>
