<svg xmlns="http://www.w3.org/2000/svg" width="512" height="512" viewBox="0 0 512 512" version="1.1"><path d="" stroke="none" fill="#9034FF" fill-rule="evenodd"/><path d="M 248.241 1.995 C 242.473 5.511, 241.008 9.207, 241.004 20.250 L 241 30 231.250 30.004 C 223.286 30.007, 220.903 30.371, 218.241 31.995 C 208.582 37.884, 208.582 52.116, 218.241 58.005 C 220.903 59.629, 223.286 59.993, 231.250 59.996 L 241 60 241 64.719 C 241 69.215, 239.816 71.223, 216.092 106.969 C 179.322 162.374, 181.778 155.638, 181.267 202.500 L 180.885 237.500 163.815 284.500 C 154.426 310.350, 144.947 335.100, 142.749 339.500 C 128.572 367.889, 104.695 390.304, 74.991 403.110 C 69.276 405.574, 54.790 409.936, 37.347 414.445 C 21.753 418.476, 7.848 422.525, 6.449 423.441 C 5.050 424.358, 3.028 426.547, 1.956 428.304 C 0.123 431.311, 0.007 433.568, 0.007 466.500 C 0.007 499.664, 0.112 501.671, 1.995 504.759 C 3.088 506.552, 5.448 508.912, 7.241 510.005 C 10.470 511.974, 12.790 511.993, 256 511.993 C 498.071 511.993, 501.545 511.965, 504.715 510.033 C 506.483 508.954, 509.070 506.265, 510.465 504.056 L 513 500.040 513 464.853 C 513 445.501, 512.702 429.965, 512.337 430.330 C 511.972 430.694, 510.851 429.640, 509.846 427.987 C 508.841 426.334, 506.619 424.131, 504.908 423.090 C 503.197 422.050, 489.821 418.203, 475.184 414.542 C 447.701 407.668, 435.493 403.368, 422.733 396.068 C 400.109 383.124, 380.914 362.819, 369.255 339.500 C 367.055 335.100, 357.574 310.350, 348.185 284.500 L 331.115 237.500 330.733 202.500 C 330.222 155.638, 332.678 162.374, 295.908 106.969 C 272.184 71.223, 271 69.215, 271 64.719 L 271 60 280.750 59.996 C 288.714 59.993, 291.097 59.629, 293.759 58.005 C 303.418 52.116, 303.418 37.884, 293.759 31.995 C 291.097 30.371, 288.714 30.007, 280.750 30.004 L 271 30 270.996 20.250 C 270.993 12.286, 270.629 9.903, 269.005 7.241 C 264.764 0.285, 255.065 -2.166, 248.241 1.995 M 235.827 133.250 C 216.900 161.645, 212 170.650, 212 177.038 L 212 180 226.500 180 L 241 180 241.004 170.250 C 241.007 162.286, 241.371 159.903, 242.995 157.241 C 248.884 147.582, 263.116 147.582, 269.005 157.241 C 270.629 159.903, 270.993 162.286, 270.996 170.250 L 271 180 285.500 180 L 300 180 300 177.038 C 300 170.650, 295.100 161.645, 276.173 133.250 C 265.450 117.162, 256.372 104, 256 104 C 255.628 104, 246.550 117.162, 235.827 133.250 M 211 346 L 211 482 226 482 L 241 482 241.004 426.750 C 241.007 373.383, 241.075 371.389, 242.995 368.241 C 248.884 358.582, 263.116 358.582, 269.005 368.241 C 270.925 371.389, 270.993 373.383, 270.996 426.750 L 271 482 286 482 L 301 482 301 346 L 301 210 256 210 L 211 210 211 346 M 248.241 242.995 C 235.233 250.926, 240.794 270.993, 256 270.993 C 271.206 270.993, 276.767 250.926, 263.759 242.995 C 259.481 240.386, 252.519 240.386, 248.241 242.995 M 177.061 337.750 C 172.461 350.013, 165.034 363.942, 157.468 374.500 L 151.018 383.500 151.009 432.750 L 151 482 166 482 L 181 482 181 405.500 C 181 363.425, 180.852 329, 180.672 329 C 180.491 329, 178.867 332.938, 177.061 337.750 M 331 405.333 L 331 482 346 482 L 361 482 360.991 432.750 L 360.982 383.500 354.539 374.500 C 346.770 363.648, 340.344 351.689, 335.441 338.958 C 333.437 333.756, 331.618 329.313, 331.399 329.083 C 331.180 328.854, 331 363.167, 331 405.333 M 116.049 415.470 C 113.601 417.305, 106.753 421.437, 100.832 424.653 L 90.065 430.500 90.032 456.250 L 90 482 105.500 482 L 121 482 121 447 C 121 427.750, 120.888 412.030, 120.750 412.067 C 120.612 412.104, 118.497 413.635, 116.049 415.470 M 391 447.043 L 391 482 406.500 482 L 422 482 421.989 456.250 L 421.978 430.500 414.307 426.500 C 410.087 424.300, 403.117 420.157, 398.818 417.293 L 391 412.086 391 447.043 M 0.451 466.500 C 0.451 486.300, 0.585 494.542, 0.748 484.815 C 0.912 475.088, 0.912 458.888, 0.749 448.815 C 0.586 438.742, 0.452 446.700, 0.451 466.500 M 46 444.104 C 39.675 445.711, 33.487 447.253, 32.250 447.532 C 30.025 448.033, 30 448.226, 30 465.019 L 30 482 45 482 L 60 482 60 461.500 C 60 445.718, 59.712 441.021, 58.750 441.091 C 58.063 441.141, 52.325 442.497, 46 444.104 M 452 461.500 L 452 482 467 482 L 482 482 482 465.039 L 482 448.077 478.250 447.093 C 467.119 444.174, 454.004 441, 453.069 441 C 452.345 441, 452 447.621, 452 461.500" stroke="none" fill="#040404" fill-rule="evenodd"/></svg>