<svg xmlns="http://www.w3.org/2000/svg" width="512" height="512" viewBox="0 0 512 512" version="1.1"><path d="" stroke="none" fill="#080404" fill-rule="evenodd"/><path d="M 394.500 1.350 C 381.374 5.697, 371.808 13.985, 366.139 25.923 C 362.964 32.609, 362.508 34.570, 362.175 42.988 C 361.865 50.822, 362.185 53.647, 363.992 59 C 366.311 65.870, 373.288 76.585, 377.181 79.254 C 379.495 80.841, 379.455 80.890, 356.856 103.672 C 344.402 116.227, 333.714 127.483, 333.106 128.684 C 331.349 132.154, 331.791 139.144, 333.995 142.759 C 337.511 148.527, 341.207 149.992, 352.250 149.996 L 362 150 362 165 L 362 180 352.148 180 C 337.132 180, 338.629 178.317, 318.800 217.500 C 300.563 253.538, 299.798 255.876, 303.995 262.759 C 307.511 268.527, 311.207 269.992, 322.250 269.996 L 332 270 332 285.500 L 332 301 226 301 L 120 301 120 285.500 L 120 270 129.750 269.996 C 140.793 269.992, 144.489 268.527, 148.005 262.759 C 150.358 258.901, 150.621 252.070, 148.566 248.200 C 147.777 246.715, 134.277 232.678, 118.566 217.007 L 90 188.513 89.996 174.507 C 89.993 162.294, 89.738 160.082, 88.005 157.241 C 82.116 147.582, 67.884 147.582, 61.995 157.241 C 60.262 160.082, 60.007 162.294, 60.004 174.507 L 60 188.513 31.434 217.007 C 15.723 232.678, 2.223 246.715, 1.434 248.200 C -0.621 252.070, -0.358 258.901, 1.995 262.759 C 5.511 268.527, 9.207 269.992, 20.250 269.996 L 30 270 30 291.006 L 30 312.013 15 342 L 0 371.987 0.004 436.744 C 0.007 499.597, 0.066 501.596, 1.995 504.759 C 3.088 506.552, 5.448 508.912, 7.241 510.005 C 10.468 511.973, 12.758 511.993, 241 511.993 C 469.242 511.993, 471.532 511.973, 474.759 510.005 C 476.552 508.912, 478.912 506.552, 480.005 504.759 C 481.958 501.557, 481.993 499.486, 481.996 385.750 L 482 270 491.750 269.996 C 499.669 269.993, 502.104 269.624, 504.715 268.033 C 509.545 265.087, 513 258.966, 513 253.353 C 513 250.776, 512.679 248.988, 512.286 249.381 C 511.893 249.773, 504.131 235.336, 495.036 217.297 C 475.393 178.338, 476.872 180, 461.852 180 L 452 180 452 165 L 452 150 461.750 149.996 C 472.793 149.992, 476.489 148.527, 480.005 142.759 C 482.209 139.144, 482.651 132.154, 480.894 128.684 C 480.286 127.483, 469.661 116.322, 457.284 103.882 L 434.780 81.264 439.459 76.382 C 442.032 73.697, 445.794 68.148, 447.819 64.052 C 451.418 56.769, 451.500 56.347, 451.500 45.052 C 451.500 33.843, 451.393 33.275, 447.887 25.935 C 443.113 15.939, 436.039 8.871, 426.065 4.131 C 419.153 0.846, 417.637 0.514, 408.500 0.281 C 402.209 0.120, 397.017 0.517, 394.500 1.350 M 403.170 30.716 C 401.888 30.960, 399.146 32.854, 397.076 34.924 C 390.753 41.247, 390.725 48.725, 397 55 C 403.015 61.015, 410.478 61.244, 416.465 55.598 C 424.279 48.228, 422.374 36.343, 412.672 31.938 C 408.476 30.033, 407.450 29.901, 403.170 30.716 M 395 108.500 L 383.533 120 407 120 L 430.467 120 419 108.500 C 412.693 102.175, 407.293 97, 407 97 C 406.707 97, 401.307 102.175, 395 108.500 M 392 165 L 392 180 407 180 L 422 180 422 165 L 422 150 407 150 L 392 150 392 165 M 349.234 224.509 C 345.255 232.489, 342 239.239, 342 239.509 C 342 239.779, 371.250 240, 407 240 C 442.750 240, 472 239.779, 472 239.509 C 472 239.239, 468.745 232.489, 464.766 224.509 L 457.532 210 407 210 L 356.468 210 349.234 224.509 M 63 228.500 L 51.533 240 75 240 L 98.467 240 87 228.500 C 80.693 222.175, 75.293 217, 75 217 C 74.707 217, 69.307 222.175, 63 228.500 M 0.300 255 C 0.300 258.025, 0.487 259.262, 0.716 257.750 C 0.945 256.238, 0.945 253.762, 0.716 252.250 C 0.487 250.738, 0.300 251.975, 0.300 255 M 60 285.500 L 60 301 75 301 L 90 301 90 285.500 L 90 270 75 270 L 60 270 60 285.500 M 362 376 L 362 482 377 482 L 392 482 392.004 456.750 C 392.007 433.318, 392.151 431.265, 393.995 428.241 C 399.884 418.582, 414.116 418.582, 420.005 428.241 C 421.849 431.265, 421.993 433.318, 421.996 456.750 L 422 482 437 482 L 452 482 452 376 L 452 270 407 270 L 362 270 362 376 M 399.241 302.995 C 386.233 310.926, 391.794 330.993, 407 330.993 C 415.532 330.993, 421.993 324.532, 421.993 316 C 421.993 307.468, 415.532 301.007, 407 301.007 C 404.270 301.007, 401.218 301.789, 399.241 302.995 M 47.234 345.509 C 43.255 353.489, 40 360.239, 40 360.509 C 40 360.779, 105.700 361, 186 361 L 332 361 332 346 L 332 331 193.234 331 L 54.468 331 47.234 345.509 M 399.241 362.995 C 386.233 370.926, 391.794 390.993, 407 390.993 C 415.532 390.993, 421.993 384.532, 421.993 376 C 421.993 367.468, 415.532 361.007, 407 361.007 C 404.270 361.007, 401.218 361.789, 399.241 362.995 M 30 436.500 L 30 482 60 482 L 90 482 90 436.500 L 90 391 60 391 L 30 391 30 436.500 M 120 436.500 L 120 482 135 482 L 150 482 150.004 456.750 C 150.007 433.318, 150.151 431.265, 151.995 428.241 C 157.884 418.582, 172.116 418.582, 178.005 428.241 C 179.849 431.265, 179.993 433.318, 179.996 456.750 L 180 482 195.500 482 L 211 482 211.004 456.750 C 211.007 433.318, 211.151 431.265, 212.995 428.241 C 215.773 423.683, 220.584 421.007, 226 421.007 C 231.416 421.007, 236.227 423.683, 239.005 428.241 C 240.849 431.265, 240.993 433.318, 240.996 456.750 L 241 482 256.500 482 L 272 482 272.004 456.750 C 272.007 433.318, 272.151 431.265, 273.995 428.241 C 279.884 418.582, 294.116 418.582, 300.005 428.241 C 301.849 431.265, 301.993 433.318, 301.996 456.750 L 302 482 317 482 L 332 482 332 436.500 L 332 391 226 391 L 120 391 120 436.500" stroke="none" fill="#f220a0" fill-rule="evenodd"/></svg>