<?xml version="1.0" standalone="no"?>
<!DOCTYPE svg PUBLIC "-//W3C//DTD SVG 20010904//EN"
 "http://www.w3.org/TR/2001/REC-SVG-20010904/DTD/svg10.dtd">
<svg version="1.0" xmlns="http://www.w3.org/2000/svg"
 width="512.000000pt" height="512.000000pt" viewBox="0 0 512.000000 512.000000"
 preserveAspectRatio="xMidYMid meet">

<g transform="translate(0.000000,512.000000) scale(0.100000,-0.100000)"
fill="#f220a0" stroke="none">
<path d="M1588 4939 c-69 -36 -78 -69 -78 -291 0 -205 8 -256 51 -344 36 -73
110 -147 184 -185 l65 -34 0 -162 0 -163 -90 0 c-107 0 -159 -21 -186 -73 -10
-17 -76 -210 -149 -427 l-132 -395 -119 -5 c-135 -6 -173 -20 -200 -73 -10
-17 -76 -210 -149 -427 l-132 -395 -124 -5 c-140 -6 -178 -19 -205 -73 -10
-17 -86 -239 -171 -492 l-153 -460 0 -328 c0 -309 1 -330 20 -367 13 -26 34
-47 60 -60 39 -20 53 -20 2480 -20 2427 0 2441 0 2480 20 26 13 47 34 60 60
19 37 20 58 20 367 l0 328 -153 460 c-85 253 -161 475 -171 492 -27 54 -65 67
-205 73 l-124 5 -132 395 c-73 217 -139 410 -149 427 -27 53 -65 67 -200 73
l-119 5 -132 395 c-73 217 -139 410 -149 427 -27 52 -79 73 -186 73 l-90 0 0
163 0 162 53 25 c64 30 164 128 196 193 43 90 51 140 51 345 0 224 -9 256 -80
292 -38 20 -56 20 -972 20 -909 -1 -934 -1 -970 -21z m1722 -370 c0 -109 -22
-159 -82 -190 -35 -18 -68 -19 -669 -19 l-631 0 -40 22 c-60 34 -78 78 -78
188 l0 90 750 0 750 0 0 -91z m-300 -659 l0 -150 -450 0 -450 0 0 150 0 150
450 0 450 0 0 -150z m-940 -458 c0 -7 -105 -486 -125 -569 -5 -23 -7 -23 -190
-23 -102 0 -185 1 -185 3 0 3 187 563 195 585 5 14 305 18 305 4z m675 -14
c18 -76 525 -2364 525 -2370 0 -5 -319 -8 -710 -8 -390 0 -710 3 -710 8 0 6
507 2294 525 2370 5 22 7 22 185 22 178 0 180 0 185 -22z m702 -263 c51 -154
96 -288 99 -297 5 -17 -8 -18 -180 -18 -184 0 -186 0 -191 23 -20 85 -125 562
-125 569 0 5 68 7 152 6 l151 -3 94 -280z m-1577 -623 c0 -7 -105 -486 -125
-569 l-5 -23 -385 0 c-212 0 -385 1 -385 3 0 3 187 563 195 585 3 9 84 12 355
12 192 0 350 -4 350 -8z m2177 -277 c51 -154 96 -288 99 -297 5 -17 -18 -18
-380 -18 l-386 0 -5 23 c-20 84 -125 562 -125 569 0 4 158 7 352 6 l351 -3 94
-280z m-2377 -623 c0 -7 -105 -486 -125 -569 l-5 -23 -590 0 c-325 0 -590 1
-590 3 0 3 187 563 195 585 3 9 125 12 560 12 305 0 555 -4 555 -8z m2987
-277 c51 -154 96 -288 99 -297 5 -17 -27 -18 -585 -18 l-591 0 -5 23 c-20 83
-125 562 -125 569 0 4 250 7 557 6 l556 -3 94 -280z m163 -765 l0 -150 -2260
0 -2260 0 0 150 0 150 2260 0 2260 0 0 -150z"/>
</g>
</svg>
