<svg xmlns="http://www.w3.org/2000/svg" width="512" height="512" viewBox="0 0 512 512" version="1.1"><path d="" stroke="none" fill="#080404" fill-rule="evenodd"/><path d="M 110 2.196 C 99.359 7.403, 88.669 22.914, 82.224 42.500 C 74.959 64.575, 74.071 82.154, 79.621 94.007 C 81.296 97.586, 84.871 103.211, 87.565 106.507 C 90.259 109.803, 113.048 147.957, 138.208 191.294 L 183.954 270.088 179.094 313.676 C 175.609 344.929, 174.488 358.184, 175.132 360.516 C 177.194 367.984, 184.144 372.663, 191.646 371.635 L 196 371.038 196 396.519 L 196 422 183.160 422 C 164.181 422, 149.668 426.467, 135.963 436.527 C 118.027 449.693, 106.050 472.682, 106.019 494 C 106.006 502.611, 107.863 506.726, 113.241 510.005 C 116.456 511.966, 118.594 511.993, 271 511.993 C 423.406 511.993, 425.544 511.966, 428.759 510.005 C 434.147 506.720, 435.992 502.617, 435.996 493.910 C 436.009 468.353, 418.714 441.497, 394.556 429.560 C 383.307 424.002, 373.849 422, 358.840 422 L 346 422 346 382.003 L 346 342.005 384.250 322.900 C 405.287 312.391, 423.963 302.692, 425.751 301.345 C 427.539 299.999, 429.677 297.592, 430.501 295.998 C 433.836 289.549, 432.959 286.919, 416.750 254.758 C 401.689 224.875, 401.445 224.472, 397.038 222.250 C 394.584 221.012, 391.165 220, 389.439 220 C 387.490 220, 380.332 223.046, 370.531 228.047 C 361.857 232.473, 354.638 235.960, 354.488 235.797 C 354.337 235.634, 352.366 218.891, 350.106 198.591 C 345.662 158.662, 345.384 157.523, 339.048 153.253 C 336.084 151.256, 334.459 151, 324.745 151 C 314.659 151, 313.852 150.861, 314.616 149.250 C 315.072 148.287, 315.599 136.913, 315.786 123.974 L 316.127 100.448 328.813 93.974 C 343.353 86.554, 346.003 83.799, 345.996 76.102 C 345.989 67.576, 339.570 61.011, 331.235 61.004 C 328.007 61.001, 324.020 62.479, 314.852 67.074 L 302.735 73.148 298.617 70.208 C 296.353 68.591, 292.587 66.299, 290.250 65.114 L 286 62.959 285.996 52.230 C 285.993 43.288, 285.661 40.957, 284.005 38.241 C 278.116 28.582, 263.884 28.582, 257.995 38.241 C 256.339 40.957, 256.007 43.288, 256.004 52.230 L 256 62.959 251.750 65.114 C 249.412 66.299, 245.647 68.591, 243.383 70.208 L 239.265 73.148 227.148 67.074 C 217.980 62.479, 213.993 61.001, 210.765 61.004 C 202.430 61.011, 196.011 67.576, 196.004 76.102 C 195.997 83.799, 198.647 86.554, 213.187 93.974 L 225.873 100.448 226.214 123.974 C 226.401 136.913, 226.928 148.287, 227.384 149.250 C 228.120 150.802, 227.609 150.999, 222.857 150.994 L 217.500 150.989 189.500 124.791 C 173.779 110.082, 161.579 97.914, 161.679 97.046 C 161.778 96.196, 162.776 93.025, 163.897 90 C 170.825 71.302, 158.710 27.043, 142 10.009 C 134.959 2.832, 130.385 0.663, 121.500 0.289 C 115.904 0.053, 113.598 0.435, 110 2.196 M 116.029 41.250 C 109.706 54.832, 105.415 72.491, 106.746 79.454 C 107.468 83.229, 113.905 89.531, 117.844 90.319 C 119.580 90.666, 122.420 90.666, 124.156 90.319 C 128.095 89.531, 134.532 83.229, 135.254 79.454 C 135.974 75.685, 134.424 65.158, 131.875 56.505 C 129.265 47.645, 122.489 33, 121 33 C 120.379 33, 118.142 36.712, 116.029 41.250 M 267.170 91.687 C 265.888 91.947, 263.108 93.892, 260.992 96.008 C 256.171 100.829, 255.709 103.563, 256.159 124.597 C 256.471 139.131, 256.692 140.769, 258.724 143.618 C 262.040 148.267, 265.877 150.380, 271 150.380 C 276.123 150.380, 279.960 148.267, 283.276 143.618 C 285.392 140.651, 285.500 139.554, 285.500 121 C 285.500 102.446, 285.392 101.349, 283.276 98.382 C 279.403 92.952, 273.342 90.433, 267.170 91.687 M 135.234 119.109 C 134.005 119.564, 133 120.174, 133 120.466 C 133 122.021, 189.540 218.113, 189.752 216.919 C 189.891 216.138, 191.115 205.825, 192.472 194 L 194.940 172.500 187.151 165 C 182.868 160.875, 169.936 148.676, 158.415 137.891 C 140.074 120.722, 137.190 118.386, 135.234 119.109 M 224.945 181.250 C 224.531 183.150, 208.349 329.587, 208.529 329.807 C 209.017 330.403, 327 270.984, 327 270.142 C 327 268.512, 317.993 187.484, 317.453 184.250 L 316.909 181 270.955 181 C 245.680 181, 224.975 181.113, 224.945 181.250 M 370.214 262.307 L 357.928 268.498 358.586 275.180 C 359.469 284.142, 356.965 289.680, 350.470 293.125 L 346 295.497 346 301.248 C 346 304.412, 346.229 307, 346.508 307 C 347.009 307, 395.207 283.043, 395.810 282.495 C 396.136 282.199, 383.165 255.957, 382.743 256.058 C 382.609 256.090, 376.971 258.902, 370.214 262.307 M 270.250 333.301 L 226 355.489 226 388.745 L 226 422 271 422 L 316 422 316 366.500 C 316 335.975, 315.663 311.025, 315.250 311.056 C 314.837 311.087, 294.587 321.097, 270.250 333.301 M 173.094 453.131 C 160.955 455.146, 147.787 464.832, 141.701 476.222 L 138.881 481.500 204.940 481.757 C 241.273 481.899, 300.727 481.899, 337.060 481.757 L 403.119 481.500 400.299 476.222 C 393.993 464.419, 381.127 455.197, 368 453.069 C 359.929 451.760, 181.008 451.818, 173.094 453.131" stroke="none" fill="#e9573e" fill-rule="evenodd"/></svg>