<svg xmlns="http://www.w3.org/2000/svg" width="512" height="512" viewBox="0 0 512 512" version="1.1"><path d="" stroke="none" fill="#080404" fill-rule="evenodd"/><path d="M 248.241 1.995 C 246.448 3.088, 244.088 5.448, 242.995 7.241 C 241.151 10.265, 241.007 12.318, 241.004 35.750 L 241 61 216.250 61.004 C 193.317 61.007, 191.261 61.153, 188.241 62.995 C 186.448 64.088, 184.088 66.448, 182.995 68.241 C 181.155 71.259, 181.007 73.317, 181.004 96.048 L 181 120.597 169.250 121.795 C 129.104 125.892, 91.261 140.537, 59.478 164.277 C 47.525 173.205, 34.467 185.196, 32.451 189.095 C 28.997 195.775, 31.681 205.006, 38.241 209.005 C 41.034 210.708, 43.291 210.993, 54.016 210.996 L 66.532 211 73.766 225.509 C 77.745 233.489, 81 240.239, 81 240.509 C 81 240.779, 78.862 241.002, 76.250 241.004 C 60.806 241.016, 55.093 260.989, 68.241 269.005 C 71.277 270.857, 73.321 270.993, 98.174 270.996 L 124.849 271 145.353 332.750 C 156.631 366.712, 166.994 398.775, 168.382 404 C 174.995 428.886, 178.637 453.246, 180.026 481.879 C 181.065 503.296, 181.702 505.535, 187.952 509.747 L 191.296 512 256 512 L 320.704 512 324.048 509.747 C 330.242 505.573, 330.860 503.395, 331.941 481.941 C 333.398 453.037, 337.031 428.789, 343.618 404 C 345.006 398.775, 355.369 366.712, 366.647 332.750 L 387.151 271 413.826 270.996 C 438.679 270.993, 440.723 270.857, 443.759 269.005 C 456.907 260.989, 451.194 241.016, 435.750 241.004 C 433.137 241.002, 431 240.779, 431 240.509 C 431 240.239, 434.255 233.489, 438.234 225.509 L 445.468 211 457.984 210.996 C 468.709 210.993, 470.966 210.708, 473.759 209.005 C 478.241 206.273, 480.992 201.405, 480.996 196.200 C 481.001 190.433, 479.363 187.610, 471.850 180.436 C 437.638 147.767, 391.133 126.609, 342.952 121.792 L 331 120.597 330.996 96.048 C 330.993 73.317, 330.845 71.259, 329.005 68.241 C 327.912 66.448, 325.552 64.088, 323.759 62.995 C 320.739 61.153, 318.683 61.007, 295.750 61.004 L 271 61 270.996 35.750 C 270.993 12.318, 270.849 10.265, 269.005 7.241 C 264.764 0.285, 255.065 -2.166, 248.241 1.995 M 211 106 L 211 121 256 121 L 301 121 301 106 L 301 91 256 91 L 211 91 211 106 M 178.500 152 C 158.603 153.434, 137.823 157.914, 122.082 164.165 C 113.898 167.415, 94.747 176.972, 91.497 179.428 C 89.714 180.775, 107.350 180.936, 256 180.936 C 404.650 180.936, 422.286 180.775, 420.503 179.428 C 417.191 176.924, 398.034 167.388, 389.551 164.019 C 379.371 159.977, 362.349 155.592, 348.429 153.428 C 339.007 151.962, 327.299 151.692, 263.500 151.468 C 222.800 151.325, 184.550 151.564, 178.500 152 M 101 211.491 C 101 211.761, 104.255 218.511, 108.234 226.491 L 115.468 241 256 241 L 396.532 241 403.766 226.491 C 407.745 218.511, 411 211.761, 411 211.491 C 411 211.221, 341.250 211, 256 211 C 170.750 211, 101 211.221, 101 211.491 M 176.553 329.250 C 187.209 361.288, 197.498 393.800, 199.418 401.500 C 205.144 424.468, 208.954 448.580, 210.597 472.250 L 211.274 482 226.137 482 L 241 482 241 430.750 L 241 379.500 222.917 325.250 L 204.833 271 181.006 271 L 157.178 271 176.553 329.250 M 246.324 298.500 C 251.359 313.625, 255.713 326, 256 326 C 256.287 326, 260.641 313.625, 265.676 298.500 L 274.829 271 256 271 L 237.171 271 246.324 298.500 M 289.083 325.250 L 271 379.500 271 430.750 L 271 482 285.863 482 L 300.726 482 301.403 472.250 C 304.438 428.541, 309.476 407.311, 335.104 330.250 L 354.809 271 330.988 271 L 307.167 271 289.083 325.250" stroke="none" fill="#2685f7" fill-rule="evenodd"/></svg>