<?xml version="1.0" standalone="no"?>
<!DOCTYPE svg PUBLIC "-//W3C//DTD SVG 20010904//EN"
 "http://www.w3.org/TR/2001/REC-SVG-20010904/DTD/svg10.dtd">
<svg version="1.0" xmlns="http://www.w3.org/2000/svg"
 width="512.000000pt" height="512.000000pt" viewBox="0 0 512.000000 512.000000"
 preserveAspectRatio="xMidYMid meet">

<g transform="translate(0.000000,512.000000) scale(0.100000,-0.100000)"
fill="#2eae4a" stroke="none">
<path d="M1894 5102 c-42 -22 -646 -638 -667 -679 -14 -26 -17 -63 -17 -193 0
-147 -13 -262 -151 -1367 -96 -769 -148 -1219 -144 -1241 5 -27 32 -61 119
-150 l112 -114 -118 -597 c-74 -370 -117 -610 -114 -633 5 -48 37 -91 80 -112
31 -15 173 -16 1568 -16 1474 0 1535 1 1568 19 53 28 82 84 76 146 -3 28 -56
307 -119 622 l-113 572 102 102 c161 160 163 -21 -14 1397 -139 1111 -152
1231 -152 1375 0 128 -3 164 -17 190 -21 41 -625 657 -667 679 -28 16 -86 17
-666 17 -580 0 -638 -1 -666 -17z m1416 -497 c118 -118 211 -215 207 -215 -4
0 -49 9 -100 20 -580 123 -1187 117 -1797 -17 -18 -4 39 59 190 211 l215 216
535 0 535 0 215 -215z m-443 -1200 l132 -790 -102 -102 -102 -103 -235 0 -235
0 -102 103 -102 102 129 780 c72 429 132 786 135 793 3 10 44 12 177 10 l173
-3 132 -790z m-797 743 c0 -34 -46 -297 -53 -304 -3 -3 -43 -14 -89 -25 -106
-23 -301 -82 -381 -114 -33 -14 -66 -25 -72 -25 -8 0 -5 54 12 187 13 103 25
188 26 189 6 6 325 76 402 88 50 8 101 17 115 19 14 2 28 5 33 6 4 0 7 -9 7
-21z m1070 7 c140 -17 470 -94 470 -110 1 -5 11 -90 24 -188 l23 -179 -21 5
c-12 3 -78 26 -148 51 -70 25 -186 60 -258 77 -111 27 -131 35 -135 53 -11 48
-45 265 -45 285 0 17 5 21 18 17 9 -2 42 -8 72 -11z m-1174 -652 c-2 -10 -39
-226 -81 -481 -54 -322 -75 -475 -70 -500 5 -29 36 -66 163 -195 87 -88 177
-173 201 -188 l45 -29 333 0 c310 0 336 1 371 19 51 27 355 337 372 380 13 32
8 74 -64 505 -42 259 -80 479 -83 490 -4 16 -1 17 29 11 75 -16 329 -105 419
-147 84 -40 98 -49 103 -74 3 -16 49 -377 101 -803 l97 -774 -404 -404 -403
-403 -535 0 -535 0 -403 403 -404 404 97 774 c52 426 98 787 101 802 6 31 55
59 211 120 94 37 307 106 331 107 8 0 11 -7 8 -17z m-69 -2877 c28 -14 102
-16 663 -16 558 0 635 2 663 16 18 9 136 120 263 246 l232 231 11 -54 c6 -30
42 -210 79 -401 l68 -348 -1316 0 -1316 0 68 348 c37 191 73 371 79 401 l11
54 231 -231 c128 -126 246 -237 264 -246z"/>
<path d="M1888 1789 c-43 -22 -78 -81 -78 -129 0 -50 35 -107 80 -130 38 -19
58 -20 670 -20 612 0 632 1 670 20 45 23 80 80 80 130 0 50 -35 107 -80 130
-38 19 -57 20 -672 20 -610 -1 -634 -2 -670 -21z"/>
</g>
</svg>
