<svg xmlns="http://www.w3.org/2000/svg" width="512" height="512" viewBox="0 0 512 512" version="1.1">
<path d="M 250 0.704 C 247.547 1.596, 243.225 6.042, 242.048 8.884 C 241.445 10.341, 234.258 45.275, 226.077 86.516 L 211.203 161.500 192.591 204.380 L 173.979 247.261 167.402 253.880 C 146.527 274.890, 125.474 310.408, 111.907 347.500 L 107.152 360.500 88.277 361 C 67.452 361.552, 65.793 362.012, 61.956 368.304 C 58.035 374.736, 58.992 378.371, 70.476 400.664 L 80.953 421 60.624 421 C 41.216 421, 40.142 421.102, 36.898 423.250 C 34.033 425.147, 30.873 430.745, 16.750 458.942 C 2.410 487.571, 0.001 493.039, 0.004 496.942 C 0.008 502.419, 2.666 507.216, 7.241 510.005 C 10.470 511.974, 12.790 511.993, 256 511.993 C 498.071 511.993, 501.545 511.965, 504.715 510.033 C 509.545 507.087, 513 500.966, 513 495.353 C 513 492.776, 512.737 490.930, 512.415 491.252 C 512.093 491.573, 504.331 476.911, 495.165 458.668 C 481.141 430.757, 477.961 425.143, 475.102 423.250 C 471.858 421.102, 470.784 421, 451.376 421 L 431.047 421 441.524 400.664 C 453.008 378.371, 453.965 374.736, 450.044 368.304 C 446.207 362.012, 444.548 361.552, 423.723 361 L 404.848 360.500 400.075 347.500 C 385.801 308.621, 367.448 277.822, 343.463 252.500 C 337.994 246.726, 337.084 244.900, 319.290 204 L 300.801 161.500 285.835 86 C 276.871 40.779, 270.172 9.298, 269.131 7.503 C 266.408 2.811, 261.453 -0.013, 256.102 0.079 C 253.571 0.122, 250.825 0.404, 250 0.704 M 250.571 121.259 C 247.860 135.142, 245.445 147.512, 245.205 148.750 C 244.772 150.976, 244.888 151, 256 151 C 267.112 151, 267.228 150.976, 266.795 148.750 C 258.978 108.563, 256.410 96.019, 256 96.019 C 255.725 96.019, 253.282 107.377, 250.571 121.259 M 223.264 211 L 210.249 241 256.039 241 L 301.828 241 293.852 222.750 C 289.466 212.713, 283.602 199.213, 280.822 192.750 L 275.768 181 256.023 181 L 236.278 181 223.264 211 M 187.926 276.750 C 174.989 290.853, 160.464 313.150, 151.008 333.421 C 146.757 342.535, 140 359.136, 140 360.468 C 140 360.760, 192.230 361, 256.067 361 L 372.135 361 371.470 358.750 C 371.104 357.512, 368.116 350.112, 364.830 342.305 C 354.823 318.528, 339.364 293.583, 324.514 277.250 L 318.832 271 256.016 271 L 193.201 271 187.926 276.750 M 188.241 302.995 C 175.233 310.926, 180.794 330.993, 196 330.993 C 211.206 330.993, 216.767 310.926, 203.759 302.995 C 201.782 301.789, 198.730 301.007, 196 301.007 C 193.270 301.007, 190.218 301.789, 188.241 302.995 M 248.241 302.995 C 235.233 310.926, 240.794 330.993, 256 330.993 C 264.532 330.993, 270.993 324.532, 270.993 316 C 270.993 307.468, 264.532 301.007, 256 301.007 C 253.270 301.007, 250.218 301.789, 248.241 302.995 M 308.241 302.995 C 295.233 310.926, 300.794 330.993, 316 330.993 C 324.532 330.993, 330.993 324.532, 330.993 316 C 330.993 307.468, 324.532 301.007, 316 301.007 C 313.270 301.007, 310.218 301.789, 308.241 302.995 M 107.798 405.978 L 115.500 420.956 256 420.955 L 396.500 420.953 404.238 405.977 L 411.977 391 256.037 391 L 100.096 391 107.798 405.978 M 47.506 465.988 C 43.378 474.231, 40 481.206, 40 481.488 C 40 481.769, 137.200 482, 256 482 C 374.800 482, 472 481.769, 472 481.488 C 472 481.206, 468.622 474.231, 464.494 465.988 L 456.987 451 256 451 L 55.013 451 47.506 465.988 M 0.300 497 C 0.300 500.025, 0.487 501.262, 0.716 499.750 C 0.945 498.238, 0.945 495.762, 0.716 494.250 C 0.487 492.738, 0.300 493.975, 0.300 497" stroke="none" fill="#e9573e" fill-rule="evenodd"/>
</svg>