<?xml version="1.0" standalone="no"?>
<!DOCTYPE svg PUBLIC "-//W3C//DTD SVG 20010904//EN"
 "http://www.w3.org/TR/2001/REC-SVG-20010904/DTD/svg10.dtd">
<svg version="1.0" xmlns="http://www.w3.org/2000/svg"
 width="512.000000pt" height="512.000000pt" viewBox="0 0 512.000000 512.000000"
 preserveAspectRatio="xMidYMid meet">

<g transform="translate(0.000000,512.000000) scale(0.100000,-0.100000)"
fill="#4246d4" stroke="none">
<path d="M3088 5099 c-60 -31 -78 -78 -78 -201 l0 -103 -52 -24 c-65 -30 -166
-129 -197 -194 -67 -139 -67 -276 0 -414 24 -48 112 -146 158 -174 l23 -15
-266 -532 -266 -533 0 -80 0 -80 -46 33 c-109 78 -198 212 -234 354 -15 59
-20 111 -20 221 0 170 -13 209 -80 243 -50 25 -90 25 -140 0 -67 -34 -80 -73
-80 -243 0 -110 -5 -162 -20 -221 -39 -152 -121 -272 -253 -367 -39 -29 -102
-82 -140 -118 l-67 -65 -18 24 c-42 57 -121 205 -151 281 -19 46 -50 149 -71
229 -20 80 -45 160 -54 177 -19 38 -81 73 -126 73 -45 0 -107 -35 -126 -73 -9
-17 -34 -97 -54 -177 -77 -298 -167 -466 -361 -677 -127 -139 -179 -261 -179
-421 0 -123 36 -241 101 -334 18 -24 19 -51 19 -397 l0 -371 -95 0 c-117 0
-164 -19 -195 -80 -19 -37 -20 -58 -20 -380 0 -322 1 -343 20 -380 13 -26 34
-47 60 -60 39 -20 53 -20 2480 -20 2427 0 2441 0 2480 20 26 13 47 34 60 60
19 37 20 58 20 380 0 322 -1 343 -20 380 -34 66 -75 80 -230 80 l-130 0 0 354
0 355 29 88 c77 230 63 467 -39 681 -72 150 -155 250 -304 361 -137 102 -200
182 -251 321 -26 69 -29 89 -33 250 -4 155 -6 179 -25 214 -39 70 -123 94
-196 57 -69 -36 -75 -54 -82 -256 -11 -293 8 -308 -244 195 l-217 434 23 15
c46 28 134 126 158 174 67 138 67 276 0 414 -33 66 -132 164 -196 194 l-53 24
0 103 c0 125 -18 170 -80 202 -49 25 -94 25 -142 -1z m142 -599 c45 -23 80
-80 80 -130 0 -76 -74 -150 -151 -150 -46 0 -108 39 -130 82 -37 72 -14 151
57 194 48 29 92 30 144 4z m108 -1125 c94 -190 172 -347 172 -350 0 -3 -157
-5 -350 -5 -192 0 -350 2 -350 5 0 10 345 695 350 695 3 0 83 -155 178 -345z
m-1352 -632 c34 -54 140 -157 231 -225 106 -80 162 -144 209 -243 62 -129 79
-294 44 -417 l-11 -38 -493 0 c-383 0 -496 3 -504 13 -34 42 -41 209 -13 319
40 154 110 256 251 363 94 72 200 174 234 228 10 15 22 27 26 27 4 0 16 -12
26 -27z m2025 5 c23 -43 144 -160 236 -230 106 -80 162 -144 209 -243 62 -129
79 -294 44 -417 l-11 -38 -498 0 -499 0 -12 33 c-21 60 -24 197 -6 278 36 161
111 274 256 384 94 72 200 174 234 228 22 33 32 34 47 5z m-587 -100 c-85 -88
-123 -142 -174 -250 -52 -109 -80 -220 -87 -343 -7 -120 7 -218 47 -338 l30
-88 0 -355 0 -354 -265 0 -265 0 0 356 c0 356 0 357 25 426 31 87 55 219 55
308 0 89 -24 221 -55 308 -23 64 -25 83 -25 236 l0 166 392 0 391 0 -69 -72z
m-2471 -23 c43 -82 129 -215 186 -285 l37 -45 -20 -70 c-14 -52 -19 -106 -20
-212 l-1 -143 -303 0 -303 0 -19 43 c-26 56 -26 157 0 214 10 23 60 89 110
145 100 113 188 239 247 354 21 41 40 74 43 74 3 0 22 -34 43 -75z m257 -1380
l0 -325 -300 0 -300 0 0 325 0 325 300 0 300 0 0 -325z m1200 -25 l0 -300
-150 0 -150 0 0 90 c0 112 -20 159 -80 190 -50 25 -90 25 -140 0 -60 -31 -80
-78 -80 -190 l0 -90 -150 0 -150 0 0 300 0 300 450 0 450 0 0 -300z m2030 0
l0 -300 -150 0 -150 0 0 91 c0 76 -4 98 -22 131 -42 74 -128 97 -202 55 -59
-34 -76 -74 -76 -184 l0 -93 -150 0 -150 0 0 300 0 300 450 0 450 0 0 -300z
m-3230 -760 l0 -160 -455 0 -455 0 0 160 0 160 455 0 455 0 0 -160z m1200 0
l0 -160 -450 0 -450 0 0 160 0 160 450 0 450 0 0 -160z m830 0 l0 -160 -265 0
-265 0 0 160 0 160 265 0 265 0 0 -160z m1200 0 l0 -160 -450 0 -450 0 0 160
0 160 450 0 450 0 0 -160z m380 0 l0 -160 -40 0 -40 0 0 160 0 160 40 0 40 0
0 -160z"/>
</g>
</svg>
