<svg xmlns="http://www.w3.org/2000/svg" width="512" height="512" viewBox="0 0 512 512" version="1.1"><path d="" stroke="none" fill="#080404" fill-rule="evenodd"/><path d="M 140 76.625 C 91.109 82.384, 52.710 97.945, 27.338 122.278 C 13.897 135.170, 5.915 148.232, 1.898 163.910 C -0.232 172.227, -0.600 184.010, 1.168 187.314 C 1.810 188.514, 12.160 204.246, 24.168 222.275 C 36.176 240.303, 46 255.266, 46 255.527 C 46 255.787, 44.763 256.002, 43.250 256.004 C 39.510 256.009, 34.401 259.294, 31.995 263.241 C 30.153 266.261, 30.007 268.317, 30.004 291.250 L 30 316 20.250 316.004 C 9.207 316.008, 5.511 317.473, 1.995 323.241 C 0.082 326.377, 0.007 328.367, 0.007 376 C 0.007 423.633, 0.082 425.623, 1.995 428.759 C 3.088 430.552, 5.448 432.912, 7.241 434.005 C 10.470 435.974, 12.790 435.993, 256 435.993 C 498.071 435.993, 501.545 435.965, 504.715 434.033 C 506.483 432.954, 509.070 430.265, 510.465 428.056 L 513 424.040 513 374.353 C 513 347.026, 512.702 324.965, 512.337 325.330 C 511.972 325.694, 510.851 324.640, 509.846 322.987 C 506.499 317.483, 502.676 316.008, 491.750 316.004 L 482 316 481.996 291.250 C 481.993 268.482, 481.837 266.244, 480.044 263.304 C 477.648 259.376, 473.918 256.842, 469.407 256.079 L 465.986 255.500 486.666 224.500 C 514.477 182.809, 513 185.507, 513 176.397 C 513 172.264, 512.606 169.125, 512.125 169.423 C 511.644 169.720, 510.966 168.192, 510.620 166.026 C 508.488 152.695, 498.140 135.205, 484.829 122.439 C 461.739 100.293, 428.645 85.621, 385.327 78.324 C 368.361 75.466, 323.240 75.740, 305.559 78.809 C 289.631 81.573, 279.558 84.080, 266.250 88.591 L 256 92.065 245.750 88.568 C 220.123 79.825, 201.091 76.850, 168.500 76.489 C 154.750 76.337, 141.925 76.399, 140 76.625 M 153.500 106.622 C 99.361 110.603, 57.045 128.713, 39.065 155.594 C 34.569 162.317, 31.002 170.392, 32.090 171.389 C 33.243 172.446, 211.400 247.933, 211.800 247.534 C 212.057 247.276, 214.196 219.938, 216.552 186.783 C 218.908 153.627, 221.095 123.527, 221.411 119.893 L 221.987 113.287 214.244 111.634 C 196.969 107.947, 167.989 105.556, 153.500 106.622 M 335 106.613 C 322.062 107.453, 291.647 112.019, 290.350 113.317 C 289.960 113.707, 299.754 247.088, 300.206 247.539 C 300.469 247.802, 341.030 230.812, 390.342 209.783 C 453.461 182.867, 479.997 171.098, 479.990 170.025 C 479.985 169.186, 478.921 166.250, 477.626 163.500 C 467.232 141.425, 439.529 123.019, 402.276 113.437 C 382.361 108.314, 353.653 105.402, 335 106.613 M 251.551 130.250 C 250.551 140.529, 243 248.305, 243 252.304 L 243 256 256 256 L 269 256 269 252.304 C 269 248.305, 261.449 140.529, 260.449 130.250 L 259.841 124 256 124 L 252.159 124 251.551 130.250 M 0.349 178 C 0.349 182.675, 0.522 184.588, 0.732 182.250 C 0.943 179.912, 0.943 176.088, 0.732 173.750 C 0.522 171.412, 0.349 173.325, 0.349 178 M 70.248 235.973 L 83.500 255.946 117 255.943 C 136.353 255.941, 149.867 255.574, 149 255.074 C 147.238 254.057, 58.037 216, 57.416 216 C 57.185 216, 62.959 224.988, 70.248 235.973 M 410.500 234.540 C 386.850 244.656, 366.150 253.594, 364.500 254.402 C 361.797 255.727, 364.816 255.876, 395 255.909 L 428.500 255.946 441.752 235.973 C 449.041 224.988, 454.666 216.034, 454.252 216.074 C 453.839 216.115, 434.150 224.425, 410.500 234.540 M 60 301.011 L 60 316.023 100.206 315.761 L 140.411 315.500 143.158 302 C 144.669 294.575, 145.927 287.938, 145.953 287.250 C 145.990 286.269, 136.759 286, 103 286 L 60 286 60 301.011 M 177.517 287.250 C 177.001 288.788, 153.997 404.204, 153.999 405.250 C 153.999 405.663, 166.825 406, 182.500 406 L 211 406 211 346 L 211 286 194.469 286 C 182.134 286, 177.831 286.317, 177.517 287.250 M 241 346 L 241 406 256 406 L 271 406 271 346 L 271 286 256 286 L 241 286 241 346 M 301 345.976 L 301 406 329.500 406 C 351.659 406, 357.989 405.722, 357.951 404.750 C 357.925 404.063, 352.616 377.175, 346.154 345 L 334.405 286.500 317.702 286.226 L 301 285.952 301 345.976 M 366.047 287.250 C 366.073 287.938, 367.331 294.575, 368.842 302 L 371.589 315.500 411.794 315.761 L 452 316.023 452 301.011 L 452 286 409 286 C 375.241 286, 366.010 286.269, 366.047 287.250 M 0.464 376 C 0.464 403.775, 0.592 415.138, 0.749 401.250 C 0.906 387.363, 0.906 364.638, 0.749 350.750 C 0.592 336.863, 0.464 348.225, 0.464 376 M 30 376 L 30 406 45 406 L 60 406 60 376 L 60 346 45 346 L 30 346 30 376 M 90 376.025 L 90 406.050 106.204 405.775 L 122.408 405.500 128.156 377 C 131.317 361.325, 133.925 347.938, 133.952 347.250 C 133.989 346.286, 128.959 346, 112 346 L 90 346 90 376.025 M 378.048 347.250 C 378.075 347.938, 380.683 361.325, 383.844 377 L 389.592 405.500 405.796 405.775 L 422 406.050 422 376.025 L 422 346 400 346 C 383.041 346, 378.011 346.286, 378.048 347.250 M 452 376 L 452 406 467 406 L 482 406 482 376 L 482 346 467 346 L 452 346 452 376" stroke="none" fill="#2eae4a" fill-rule="evenodd"/></svg>