<svg xmlns="http://www.w3.org/2000/svg" width="512" height="512" viewBox="0 0 512 512" version="1.1"><path d="" stroke="none" fill="#080404" fill-rule="evenodd"/><path d="M 158.241 1.995 C 156.448 3.088, 154.088 5.448, 152.995 7.241 C 151.075 10.389, 151.007 12.383, 151.004 65.750 L 151 121 141.250 121.004 C 133.286 121.007, 130.903 121.371, 128.241 122.995 C 118.582 128.884, 118.582 143.116, 128.241 149.005 C 130.903 150.629, 133.286 150.993, 141.250 150.996 L 151 151 151 316.500 L 151 482 111.250 482.004 C 73.350 482.007, 71.348 482.100, 68.241 483.995 C 58.582 489.884, 58.582 504.116, 68.241 510.005 C 71.462 511.969, 73.659 511.993, 256 511.993 C 438.341 511.993, 440.538 511.969, 443.759 510.005 C 453.418 504.116, 453.418 489.884, 443.759 483.995 C 440.710 482.135, 438.675 482.007, 412.139 482.004 L 383.777 482 384.399 478.684 C 386.020 470.045, 388.982 443.811, 390.057 428.568 C 391.583 406.926, 390.758 354.799, 388.575 335 C 383.584 289.736, 372.109 242.205, 357.367 205.734 C 352.195 192.940, 352.244 195.387, 356.616 167.816 L 359.283 151 369.891 150.996 C 378.713 150.993, 381.049 150.658, 383.759 149.005 C 393.418 143.116, 393.418 128.884, 383.759 122.995 C 380.672 121.113, 378.649 121.007, 345.500 120.992 L 310.500 120.976 304.500 113.315 C 274.051 74.441, 232.296 45.965, 190.500 35.570 L 181.500 33.332 181 21.364 C 180.447 8.136, 179.440 5.458, 173.696 1.956 C 169.481 -0.614, 162.490 -0.596, 158.241 1.995 M 181 93 L 181 121 225.551 121 L 270.102 121 267.585 117.700 C 263.981 112.975, 246.335 97.573, 236.169 90.280 C 224.725 82.069, 206.875 72.906, 193.802 68.532 C 187.996 66.589, 182.741 65, 182.123 65 C 181.319 65, 181 72.950, 181 93 M 181 166 L 181 181 205.500 181 C 218.975 181, 230 180.700, 230 180.333 C 230 179.224, 223.158 167.136, 217.823 158.819 L 212.807 151 196.904 151 L 181 151 181 166 M 250 151.351 C 250 151.543, 253.412 158.300, 257.582 166.366 L 265.164 181.030 294.309 180.765 L 323.453 180.500 325.651 167 C 326.859 159.575, 327.882 152.938, 327.924 152.250 C 327.984 151.270, 319.574 151, 289 151 C 267.550 151, 250 151.158, 250 151.351 M 181 225.986 L 181 241 217.567 241 L 254.135 241 253.429 238.750 C 253.041 237.512, 250.838 230.875, 248.534 224 L 244.344 211.500 212.672 211.236 L 181 210.972 181 225.986 M 277.345 212.458 C 282.470 225.813, 290.921 259.177, 294.389 279.748 C 299.791 311.790, 300.476 320.949, 300.465 361 C 300.455 401.137, 299.603 412.666, 294.413 442.877 C 292.278 455.307, 288.118 474.726, 286.407 480.250 C 285.898 481.893, 287.918 482, 319.313 482 L 352.762 482 354.389 471.250 C 362.368 418.536, 362.397 362.246, 354.471 312 C 349.757 282.115, 342.114 252.821, 331.707 224.750 L 326.610 211 301.698 211 C 280.286 211, 276.865 211.205, 277.345 212.458 M 181 286 L 181 301 223.500 301 C 263.300 301, 266.002 300.889, 266.024 299.250 C 266.038 298.288, 265.047 291.538, 263.823 284.250 L 261.597 271 221.298 271 L 181 271 181 286 M 181 346 L 181 361 226.136 361 L 271.272 361 270.636 356.360 C 270.286 353.809, 270 347.059, 270 341.360 L 270 331 225.500 331 L 181 331 181 346 M 181 406 L 181 421 223.899 421 L 266.797 421 267.483 414.165 C 267.861 410.406, 268.486 403.656, 268.871 399.165 L 269.573 391 225.287 391 L 181 391 181 406 M 181 466.500 L 181 482 217.472 482 L 253.944 482 255.452 476.750 C 256.281 473.863, 258.041 466.887, 259.364 461.250 L 261.768 451 221.384 451 L 181 451 181 466.500" stroke="none" fill="#e68416" fill-rule="evenodd"/></svg>