<svg xmlns="http://www.w3.org/2000/svg" width="512" height="512" viewBox="0 0 512 512" version="1.1"><path d="" stroke="none" fill="#f220a0" fill-rule="evenodd"/><path d="M 248.241 1.995 C 246.448 3.088, 244.088 5.448, 242.995 7.241 C 241.131 10.298, 241.007 12.328, 241.004 40.014 L 241 69.528 227.431 83.014 C 219.968 90.431, 213.218 97.715, 212.431 99.200 C 211.285 101.362, 211 107.642, 211 130.707 L 211 159.513 182.434 188.007 C 166.723 203.678, 153.223 217.715, 152.434 219.200 C 151.237 221.455, 151 231.363, 150.999 279.200 L 150.998 336.500 123.249 350.500 C 100.215 362.121, 95.118 365.077, 93.250 367.898 L 91 371.296 91 426.648 L 91 482 81.250 482.004 C 73.286 482.007, 70.903 482.371, 68.241 483.995 C 58.582 489.884, 58.582 504.116, 68.241 510.005 C 71.462 511.969, 73.659 511.993, 256 511.993 C 438.341 511.993, 440.538 511.969, 443.759 510.005 C 453.418 504.116, 453.418 489.884, 443.759 483.995 C 441.097 482.371, 438.714 482.007, 430.750 482.004 L 421 482 421 441.648 C 421 401.475, 420.990 401.281, 418.750 397.898 C 416.882 395.077, 411.785 392.121, 388.751 380.500 L 361.002 366.500 361.001 323.898 C 361 281.392, 360.995 281.288, 358.750 277.898 C 356.882 275.077, 351.785 272.121, 328.751 260.500 L 301.002 246.500 301.001 189.244 L 301 131.987 286 102 L 271 72.013 270.996 41.256 C 270.993 12.330, 270.874 10.306, 269.005 7.241 C 264.764 0.285, 255.065 -2.166, 248.241 1.995 M 246.216 107.281 L 241 112.563 241 297.281 L 241 482 256 482 L 271 482 271 310.990 L 271 139.980 261.495 120.990 C 256.267 110.546, 251.864 102, 251.711 102 C 251.557 102, 249.085 104.377, 246.216 107.281 M 195.737 217.762 L 181 232.524 181 357.262 L 181 482 196 482 L 211 482 211 342.500 C 211 265.775, 210.882 203, 210.737 203 C 210.593 203, 203.843 209.643, 195.737 217.762 M 301 381.500 L 301 482 316 482 L 331 482 331 388.734 L 331 295.468 316.491 288.234 C 308.511 284.255, 301.761 281, 301.491 281 C 301.221 281, 301 326.225, 301 381.500 M 135.250 378.291 L 121 385.468 121 433.734 L 121 482 136 482 L 151 482 151 426.500 C 151 395.975, 150.662 371.026, 150.250 371.058 C 149.838 371.089, 143.088 374.344, 135.250 378.291 M 361 441.500 L 361 482 376 482 L 391 482 391 448.734 L 391 415.468 376.491 408.234 C 368.511 404.255, 361.761 401, 361.491 401 C 361.221 401, 361 419.225, 361 441.500" stroke="none" fill="#f220a0" fill-rule="evenodd"/></svg>