<svg xmlns="http://www.w3.org/2000/svg" width="512" height="512" viewBox="0 0 512 512" version="1.1"><path d="" stroke="none" fill="#080404" fill-rule="evenodd"/><path d="M 128.241 1.995 C 126.448 3.088, 124.088 5.448, 122.995 7.241 C 121.099 10.351, 121.007 12.351, 121.004 50.866 L 121 91.233 111.230 90.840 C 103.431 90.527, 100.759 90.013, 97.980 88.293 C 93.640 85.606, 91.167 81.495, 90.364 75.635 C 89.582 69.930, 86.944 65.546, 82.759 62.995 C 79.673 61.113, 77.665 61.007, 45 61.007 C 12.335 61.007, 10.327 61.113, 7.241 62.995 C 5.448 64.088, 3.088 66.448, 1.995 68.241 C 0.064 71.408, 0.007 73.410, 0.004 139.090 C 0 202.716, 0.114 207.125, 1.940 214.265 C 8.770 240.971, 30.029 262.230, 56.735 269.060 C 63.366 270.756, 67.886 271, 92.660 271 L 121 271 121.004 310.750 C 121.007 348.650, 121.100 350.652, 122.995 353.759 C 124.088 355.552, 126.448 357.912, 128.241 359.005 C 131.348 360.900, 133.350 360.993, 171.250 360.996 L 211 361 211 404.340 C 211 443.959, 211.167 448.331, 212.940 455.265 C 219.770 481.971, 241.029 503.230, 267.735 510.060 C 275.023 511.924, 279.754 512, 388.410 511.996 C 499.492 511.993, 501.558 511.957, 504.759 510.005 C 506.552 508.912, 508.912 506.552, 510.005 504.759 C 511.956 501.559, 511.993 499.502, 511.993 391.500 C 511.993 283.498, 511.956 281.441, 510.005 278.241 C 508.912 276.448, 506.552 274.088, 504.759 272.995 C 501.650 271.099, 499.649 271.007, 461.250 271.004 L 421 271 420.996 140.750 C 420.993 12.545, 420.961 10.449, 419.005 7.241 C 417.912 5.448, 415.552 3.088, 413.759 1.995 C 410.548 0.037, 408.439 0.007, 271 0.007 C 133.561 0.007, 131.452 0.037, 128.241 1.995 M 151 45.500 L 151 61 181 61 L 211 61 211 45.500 L 211 30 181 30 L 151 30 151 45.500 M 241 45.500 L 241 61 271 61 L 301 61 301 45.500 L 301 30 271 30 L 241 30 241 45.500 M 331 45.500 L 331 61 361 61 L 391 61 391 45.500 L 391 30 361 30 L 331 30 331 45.500 M 32.603 93.750 C 33.876 99.214, 38.374 109.615, 41.793 115 C 49.534 127.195, 60.768 137.135, 73.500 143.053 C 84.624 148.224, 92.389 149.954, 107.750 150.681 L 121 151.308 121 136.154 L 121 121 109.589 121 C 96.539 121, 89.078 119.184, 81.100 114.064 C 74.634 109.915, 67.789 102.491, 64.567 96.133 L 61.966 91 46.964 91 L 31.962 91 32.603 93.750 M 151 211 L 151 331 181 331 L 211 331 211 251.710 C 211 163.666, 210.770 167.027, 217.749 153 C 224.924 138.576, 240.050 126.663, 256.460 122.509 C 264.098 120.575, 277.902 120.575, 285.540 122.509 C 305.060 127.450, 320.840 141.922, 328.234 161.664 C 330.334 167.270, 330.441 169.333, 330.960 214 C 331.559 265.582, 331.230 263.174, 338.382 268.276 C 341.370 270.408, 342.529 270.513, 366.250 270.813 L 391 271.127 391 181.063 L 391 91 271 91 L 151 91 151 211 M 30.020 172.547 C 30.031 185.171, 30.490 198.613, 31.039 202.417 C 33.790 221.449, 49.551 237.210, 68.583 239.961 C 72.387 240.510, 85.737 240.969, 98.250 240.980 L 121 241 121 211 L 121 181 107.610 181 C 99.629 181, 90.881 180.366, 85.951 179.431 C 66.910 175.819, 47.125 165.861, 33.750 153.156 L 30 149.594 30.020 172.547 M 265.344 152.031 C 256.083 153.887, 247.945 160.485, 243.799 169.500 C 241.571 174.346, 241.490 175.521, 241.178 207.750 L 240.856 241 271 241 L 301.144 241 300.821 207.750 C 300.509 175.515, 300.428 174.344, 298.191 169.401 C 292.538 156.910, 278.373 149.419, 265.344 152.031 M 241 278.776 C 241 304.332, 248.077 323.174, 263.452 338.548 C 275.468 350.565, 290.410 357.861, 307.356 359.985 C 312.247 360.599, 348.391 361, 398.724 361 L 482 361 482 331.025 L 482 301.050 408.197 300.775 L 334.394 300.500 326.683 296.689 C 317.464 292.132, 310.735 285.733, 306.185 277.196 L 302.883 271 271.941 271 L 241 271 241 278.776 M 241.020 398.113 C 241.031 419.226, 241.490 439.613, 242.039 443.417 C 244.790 462.449, 260.551 478.210, 279.583 480.961 C 283.812 481.572, 324.488 481.968, 384.250 481.980 L 482 482 482 436.500 L 482 391 392.958 391 C 315.643 391, 302.901 390.791, 296.208 389.417 C 276.568 385.383, 259.401 376.779, 245.750 364.128 L 241 359.726 241.020 398.113" stroke="none" fill="#9034FF" fill-rule="evenodd"/></svg>